<?xml version="1.0" encoding="iso-8859-1"?>
<!-- Generator: Adobe Illustrator 19.0.0, SVG Export Plug-In . SVG Version: 6.00 Build 0)  -->
<svg version="1.1" id="Capa_1" xmlns="http://www.w3.org/2000/svg" xmlns:xlink="http://www.w3.org/1999/xlink" x="0px" y="0px"
	 viewBox="0 0 512 512" style="enable-background:new 0 0 512 512;" xml:space="preserve">
<g>
	<g>
		<path d="M504.396,134.529c-4.2,0-7.604,3.405-7.604,7.604v282.573c0,8.163-6.641,14.802-14.802,14.802H30.02
			c-8.169,0-14.813-6.641-14.813-14.802V324.604c0-4.199-3.404-7.604-7.604-7.604C3.404,317,0,320.405,0,324.604v100.103
			c0,16.548,13.467,30.01,30.02,30.01H481.99c16.547,0,30.01-13.463,30.01-30.01V142.133
			C512,137.934,508.596,134.529,504.396,134.529z"/>
	</g>
</g>
<g>
	<g>
		<path d="M7.604,134.529c-4.2,0-7.604,3.405-7.604,7.604v157.123c0,4.199,3.404,7.604,7.604,7.604s7.604-3.405,7.604-7.604V142.133
			C15.208,137.934,11.804,134.529,7.604,134.529z"/>
	</g>
</g>
<g>
	<g>
		<path d="M455.021,67.422H303.986c-20.453,0-38.348,11.11-48.001,27.604c-7.765-13.267-20.887-23.196-36.684-26.457
			c-4.103-0.848-8.134,1.797-8.983,5.91c-0.85,4.113,1.797,8.135,5.91,8.984c18.639,3.849,32.168,20.48,32.168,39.549v276.123
			c-10.273-10.878-24.708-17.315-40.382-17.315H56.989c-8.285,0-15.024-6.736-15.024-15.015V127.959V97.655
			c0-8.285,6.739-15.025,15.024-15.025h22.602c4.2,0,7.604-3.405,7.604-7.604s-3.404-7.604-7.604-7.604H56.989
			c-16.67,0-30.232,13.562-30.232,30.233v30.304v238.845v30.304c0,16.671,13.562,30.233,30.232,30.233h398.032
			c16.671,0,30.233-13.562,30.233-30.233v-30.304V127.959V97.655C485.254,80.984,471.692,67.422,455.021,67.422z M56.989,412.135
			c-8.285,0-15.024-6.74-15.024-15.025v-4.095c4.43,2.549,9.558,4.014,15.024,4.014h151.025c12.554,0,24.013,5.682,31.534,15.107
			H56.989z M470.046,127.959v238.845c0,8.279-6.74,15.015-15.025,15.015h-22.679c-4.2,0-7.604,3.405-7.604,7.604
			s3.404,7.604,7.604,7.604h22.679c5.468,0,10.596-1.466,15.025-4.014v4.095c0,8.285-6.74,15.025-15.025,15.025H272.452
			c7.52-9.425,18.981-15.107,31.534-15.107h103.007c4.2,0,7.604-3.405,7.604-7.604s-3.404-7.604-7.604-7.604H303.986
			c-15.675,0-30.11,6.437-40.382,17.315V123.012c0-22.266,18.116-40.382,40.382-40.382h151.035c8.285,0,15.025,6.74,15.025,15.025
			V127.959z"/>
	</g>
</g>
<g>
	<g>
		<path d="M430.779,126.007H307.753c-4.2,0-7.604,3.405-7.604,7.604s3.404,7.604,7.604,7.604h123.026c4.2,0,7.604-3.405,7.604-7.604
			S434.979,126.007,430.779,126.007z"/>
	</g>
</g>
<g>
	<g>
		<path d="M430.779,158.965H307.753c-4.2,0-7.604,3.405-7.604,7.604s3.404,7.604,7.604,7.604h123.026c4.2,0,7.604-3.405,7.604-7.604
			S434.979,158.965,430.779,158.965z"/>
	</g>
</g>
<g>
	<g>
		<path d="M430.779,224.883H307.753c-4.2,0-7.604,3.405-7.604,7.604c0,4.199,3.404,7.604,7.604,7.604h123.026
			c4.2,0,7.604-3.405,7.604-7.604C438.383,228.287,434.979,224.883,430.779,224.883z"/>
	</g>
</g>
<g>
	<g>
		<path d="M430.779,290.8H307.753c-4.2,0-7.604,3.405-7.604,7.604s3.404,7.604,7.604,7.604h123.026c4.2,0,7.604-3.405,7.604-7.604
			S434.979,290.8,430.779,290.8z"/>
	</g>
</g>
<g>
	<g>
		<path d="M430.779,191.924H307.753c-4.2,0-7.604,3.405-7.604,7.604c0,4.199,3.404,7.604,7.604,7.604h123.026
			c4.2,0,7.604-3.405,7.604-7.604C438.383,195.328,434.979,191.924,430.779,191.924z"/>
	</g>
</g>
<g>
	<g>
		<path d="M430.779,257.841H307.753c-4.2,0-7.604,3.405-7.604,7.604c0,4.199,3.404,7.604,7.604,7.604h123.026
			c4.2,0,7.604-3.405,7.604-7.604C438.383,261.246,434.979,257.841,430.779,257.841z"/>
	</g>
</g>
<g>
	<g>
		<path d="M100.879,126.007h-25.51c-4.2,0-7.604,3.405-7.604,7.604s3.404,7.604,7.604,7.604h25.51c4.2,0,7.604-3.405,7.604-7.604
			S105.08,126.007,100.879,126.007z"/>
	</g>
</g>
<g>
	<g>
		<path d="M100.879,158.965h-25.51c-4.2,0-7.604,3.405-7.604,7.604s3.404,7.604,7.604,7.604h25.51c4.2,0,7.604-3.405,7.604-7.604
			S105.08,158.965,100.879,158.965z"/>
	</g>
</g>
<g>
	<g>
		<path d="M198.396,224.883H75.369c-4.2,0-7.604,3.405-7.604,7.604c0,4.199,3.404,7.604,7.604,7.604h123.027
			c4.2,0,7.604-3.405,7.604-7.604C206,228.287,202.596,224.883,198.396,224.883z"/>
	</g>
</g>
<g>
	<g>
		<path d="M198.396,290.8H75.369c-4.2,0-7.604,3.405-7.604,7.604s3.404,7.604,7.604,7.604h123.027c4.2,0,7.604-3.405,7.604-7.604
			S202.596,290.8,198.396,290.8z"/>
	</g>
</g>
<g>
	<g>
		<path d="M100.879,191.924h-25.51c-4.2,0-7.604,3.405-7.604,7.604c0,4.199,3.404,7.604,7.604,7.604h25.51
			c4.2,0,7.604-3.405,7.604-7.604C108.483,195.328,105.08,191.924,100.879,191.924z"/>
	</g>
</g>
<g>
	<g>
		<path d="M198.396,257.841H75.369c-4.2,0-7.604,3.405-7.604,7.604s3.404,7.604,7.604,7.604h123.027c4.2,0,7.604-3.405,7.604-7.604
			S202.596,257.841,198.396,257.841z"/>
	</g>
</g>
<g>
	<g>
		<path d="M177.259,57.283h-76.04c-4.2,0-7.604,3.405-7.604,7.604s3.405,7.604,7.605,7.604c7.461,0,13.532,6.07,13.532,13.531
			v123.645c0,2.865,1.611,5.488,4.167,6.783c2.556,1.297,5.624,1.043,7.934-0.652l33.521-24.59l33.522,24.59
			c1.329,0.975,2.909,1.473,4.498,1.473c1.172,0,2.35-0.271,3.436-0.821c2.556-1.295,4.167-3.918,4.167-6.783V86.022
			C205.999,70.175,193.107,57.283,177.259,57.283z M190.792,194.659l-25.917-19.012c-1.338-0.982-2.919-1.473-4.499-1.473
			s-3.159,0.491-4.497,1.473l-25.918,19.012V86.022c0-4.89-1.227-9.497-3.389-13.531h50.689c7.461,0,13.532,6.07,13.532,13.531
			V194.659z"/>
	</g>
</g>
<g>
</g>
<g>
</g>
<g>
</g>
<g>
</g>
<g>
</g>
<g>
</g>
<g>
</g>
<g>
</g>
<g>
</g>
<g>
</g>
<g>
</g>
<g>
</g>
<g>
</g>
<g>
</g>
<g>
</g>
</svg>
