<?xml version="1.0" encoding="UTF-8" standalone="no"?>
<!DOCTYPE svg PUBLIC "-//W3C//DTD SVG 1.1//EN" "http://www.w3.org/Graphics/SVG/1.1/DTD/svg11.dtd">
<svg version="1.1" xmlns="http://www.w3.org/2000/svg" xmlns:xlink="http://www.w3.org/1999/xlink" preserveAspectRatio="xMidYMid meet" viewBox="0 0 640 640" width="640" height="640"><defs><path d="M381.07 85.61C356.65 85.61 335.29 98.8 323.76 118.39C314.49 102.64 298.83 90.85 279.97 86.98C275.07 85.97 121.55 98.79 120.54 103.67C119.52 108.55 271.39 103.65 276.3 104.66C298.55 109.23 314.7 128.97 314.7 151.61C314.7 184.4 314.7 446.67 314.7 479.45C302.44 466.54 285.21 458.89 266.5 458.89C248.47 458.89 104.24 458.89 86.21 458.89C76.32 458.89 68.27 450.9 68.27 441.07C68.27 422.16 68.27 327.64 68.27 157.49C68.27 135.9 68.27 123.91 68.27 121.51C68.27 111.67 76.32 103.67 86.21 103.67C88.91 103.67 110.49 103.67 113.19 103.67C118.2 103.67 272.34 91.96 272.34 86.98C272.34 81.99 118.2 85.61 113.19 85.61C110.49 85.61 88.91 85.61 86.21 85.61C66.31 85.61 50.12 101.72 50.12 121.51C50.12 123.91 50.12 135.9 50.12 157.49L50.12 441.07C50.12 462.65 50.12 474.65 50.12 477.04C50.12 496.84 66.31 512.94 86.21 512.94C133.72 512.94 513.85 512.94 561.37 512.94C581.27 512.94 597.46 496.84 597.46 477.04C597.46 474.65 597.46 462.65 597.46 441.07L597.46 157.49C597.46 135.9 597.46 123.91 597.46 121.51C597.46 101.72 581.27 85.61 561.37 85.61C525.31 85.61 399.1 85.61 381.07 85.61ZM68.27 477.05C68.27 476.56 68.27 472.67 68.27 472.19C73.56 475.21 79.68 476.95 86.21 476.95C104.24 476.95 248.47 476.95 266.5 476.95C281.48 476.95 295.16 483.7 304.14 494.89C289.61 494.89 216.97 494.89 86.21 494.89C74.25 489.55 68.27 483.6 68.27 477.05ZM579.3 441.07C579.3 450.89 571.26 458.89 561.37 458.89C558.66 458.89 537 458.89 534.29 458.89C529.28 458.89 525.22 462.93 525.22 467.92C525.22 472.91 529.28 476.95 534.29 476.95C537 476.95 558.66 476.95 561.37 476.95C567.89 476.95 574.02 475.21 579.3 472.18C579.3 472.67 579.3 476.56 579.3 477.04C579.3 486.88 571.26 494.88 561.37 494.88C539.57 494.88 365.22 494.88 343.42 494.88C352.4 483.69 366.08 476.95 381.07 476.95C393.36 476.95 491.74 476.95 504.03 476.95C509.05 476.95 513.11 472.9 513.11 467.92C513.11 462.93 509.05 458.89 504.03 458.89C491.74 458.89 393.36 458.89 381.07 458.89C362.35 458.89 345.12 466.53 332.86 479.45C332.86 446.67 332.86 184.4 332.86 151.61C332.86 125.18 354.49 103.67 381.07 103.67C399.1 103.67 543.34 103.67 561.37 103.67C571.26 103.67 579.3 111.67 579.3 121.51C579.3 123.91 579.3 135.9 579.3 157.49C579.3 327.63 579.3 422.16 579.3 441.07Z" id="jvAhdZYeC"></path><mask id="maskb9h3FLt2t" x="40.12" y="74.34" width="567.34" height="448.6" maskUnits="userSpaceOnUse"><rect x="40.12" y="74.34" width="567.34" height="448.6" fill="white"></rect><use xlink:href="#jvAhdZYeC" opacity="1" fill="black"></use></mask><path d="M214.41 220.65L214.87 220.67L215.32 220.71L215.78 220.76L216.23 220.81L216.69 220.88L217.13 220.96L217.58 221.05L218.02 221.14L218.46 221.25L218.89 221.36L219.31 221.49L219.73 221.62L220.15 221.76L220.56 221.91L220.96 222.07L221.36 222.24L221.76 222.42L222.14 222.6L222.52 222.79L222.9 222.99L223.26 223.2L223.62 223.42L223.97 223.64L224.32 223.87L224.66 224.11L224.99 224.36L225.31 224.61L225.62 224.87L225.93 225.14L226.23 225.41L226.52 225.69L226.8 225.98L227.07 226.27L227.33 226.57L227.58 226.88L227.83 227.19L228.06 227.51L228.28 227.83L228.5 228.16L228.7 228.49L228.89 228.83L229.08 229.18L229.25 229.53L229.41 229.88L229.56 230.24L229.69 230.6L229.82 230.96L229.93 231.32L230.03 231.69L230.12 232.05L230.19 232.42L230.26 232.79L230.31 233.15L230.35 233.52L230.38 233.89L230.39 234.26L230.4 234.63L230.39 234.99L230.37 235.36L230.34 235.73L230.3 236.09L230.24 236.45L230.18 236.82L230.1 237.18L230.01 237.54L229.91 237.89L229.8 238.25L229.67 238.6L229.54 238.95L229.39 239.3L229.24 239.64L229.07 239.98L228.89 240.32L228.7 240.65L228.5 240.98L228.29 241.31L228.06 241.63L227.83 241.95L227.58 242.26L227.33 242.57L227.06 242.88L226.78 243.17L226.5 243.47L226.2 243.76L225.68 244.32L225.18 244.89L224.68 245.46L224.2 246.03L223.72 246.62L223.25 247.2L222.79 247.79L222.34 248.39L221.9 248.99L221.47 249.59L221.05 250.2L220.64 250.81L220.24 251.43L219.85 252.05L219.46 252.67L219.09 253.3L218.73 253.93L218.37 254.56L218.03 255.2L217.69 255.84L217.37 256.49L217.06 257.14L216.75 257.79L216.46 258.44L216.17 259.1L215.9 259.76L215.63 260.43L215.38 261.1L215.13 261.76L214.9 262.44L214.68 263.11L214.46 263.79L214.26 264.47L214.07 265.15L213.89 265.84L213.72 266.52L213.55 267.21L213.4 267.91L213.26 268.6L213.13 269.29L213.87 268.21L214.61 267.14L215.36 266.07L216.13 265L216.9 263.95L217.69 262.89L218.49 261.85L219.3 260.81L220.11 259.77L220.94 258.74L221.78 257.72L222.63 256.7L223.5 255.69L224.37 254.69L225.25 253.69L226.14 252.7L227.04 251.72L227.96 250.74L228.88 249.77L229.81 248.8L230.76 247.84L231.71 246.89L232.67 245.95L233.64 245.01L234.63 244.08L235.62 243.15L236.62 242.23L237.63 241.32L238.66 240.42L239.69 239.52L240.73 238.63L241.78 237.75L242.84 236.88L243.91 236.01L244.99 235.15L246.07 234.3L247.17 233.45L248.28 232.61L249.39 231.78L250.52 230.96L251.04 230.58L251.58 230.22L252.13 229.89L252.69 229.57L253.26 229.27L253.85 229L254.44 228.74L255.04 228.51L255.65 228.3L256.27 228.1L256.9 227.93L257.53 227.78L258.16 227.65L258.8 227.54L259.44 227.45L260.09 227.38L260.74 227.33L261.39 227.3L262.04 227.29L262.69 227.3L263.34 227.33L263.98 227.39L264.63 227.46L265.27 227.55L265.91 227.66L266.54 227.8L267.17 227.95L267.79 228.12L268.4 228.32L269.01 228.53L269.6 228.76L270.19 229.02L270.77 229.29L271.33 229.58L271.89 229.9L272.43 230.23L272.96 230.58L273.48 230.96L273.98 231.35L274.46 231.76L274.69 231.97L274.91 232.18L275.13 232.39L275.34 232.6L275.54 232.82L275.74 233.05L275.93 233.27L276.12 233.5L276.31 233.73L276.48 233.96L276.65 234.2L276.82 234.43L276.98 234.68L277.13 234.92L277.28 235.16L277.42 235.41L277.56 235.66L277.69 235.91L277.81 236.17L277.93 236.42L278.04 236.68L278.14 236.94L278.24 237.2L278.33 237.46L278.42 237.73L278.5 237.99L278.57 238.26L278.64 238.53L278.7 238.8L278.76 239.07L278.81 239.34L278.85 239.61L278.88 239.88L278.91 240.16L278.93 240.43L278.95 240.71L278.96 240.99L278.96 241.26L278.95 241.54L278.94 241.82L278.92 242.1L278.9 242.37L278.87 242.65L278.83 242.93L278.78 243.2L278.73 243.47L278.68 243.74L278.61 244.01L278.54 244.28L278.46 244.55L278.38 244.81L278.29 245.08L278.19 245.34L278.09 245.6L277.98 245.86L277.87 246.12L277.75 246.37L277.62 246.62L277.49 246.88L277.35 247.12L277.21 247.37L277.06 247.61L276.9 247.85L276.74 248.09L276.57 248.33L276.4 248.56L276.22 248.79L276.04 249.02L275.85 249.25L275.65 249.47L275.45 249.69L275.24 249.91L275.03 250.12L274.82 250.33L274.59 250.53L274.37 250.74L274.13 250.94L273.89 251.13L273.65 251.33L273.4 251.52L272.78 251.98L272.15 252.45L271.53 252.92L270.92 253.4L270.3 253.88L269.69 254.36L269.08 254.84L268.48 255.32L267.88 255.81L267.28 256.3L266.68 256.79L266.09 257.29L265.5 257.79L264.92 258.29L264.33 258.79L263.75 259.29L263.18 259.8L262.61 260.31L262.04 260.82L261.47 261.34L260.91 261.85L260.34 262.37L259.79 262.9L259.23 263.42L258.68 263.95L258.14 264.47L257.59 265.01L257.05 265.54L256.51 266.07L255.98 266.61L255.45 267.15L254.92 267.7L254.4 268.24L253.88 268.79L253.36 269.34L252.85 269.89L252.34 270.44L251.83 271L251.33 271.56L250.83 272.12L251.71 271.66L252.6 271.2L253.49 270.75L254.39 270.31L255.29 269.87L256.19 269.44L257.1 269.01L258.01 268.59L258.93 268.18L259.85 267.78L260.77 267.38L261.7 266.98L262.63 266.59L263.56 266.21L264.5 265.84L265.45 265.47L266.39 265.1L267.34 264.75L268.29 264.4L269.25 264.05L270.21 263.72L271.17 263.39L272.14 263.06L273.11 262.74L274.08 262.43L275.05 262.13L276.03 261.83L277.01 261.53L278 261.25L278.99 260.97L279.98 260.7L280.97 260.43L281.97 260.17L282.96 259.92L283.97 259.67L284.97 259.43L285.98 259.2L286.99 258.97L288 258.75L289.01 258.54L289.34 258.47L289.66 258.4L289.99 258.34L290.32 258.29L290.65 258.24L290.98 258.19L291.31 258.16L291.64 258.12L291.97 258.1L292.31 258.07L292.64 258.06L292.97 258.05L293.3 258.04L293.63 258.04L293.96 258.04L294.3 258.05L294.63 258.07L294.96 258.09L295.29 258.12L295.62 258.15L295.94 258.18L296.27 258.23L296.6 258.27L296.92 258.33L297.25 258.38L297.57 258.45L297.89 258.51L298.21 258.59L298.53 258.67L298.84 258.75L299.16 258.84L299.47 258.93L299.78 259.03L300.09 259.13L300.4 259.24L300.7 259.36L301.01 259.48L301.31 259.6L301.6 259.73L301.9 259.87L302.19 260.01L302.48 260.15L302.76 260.3L303.04 260.45L303.31 260.61L303.58 260.77L303.85 260.94L304.11 261.1L304.37 261.28L304.62 261.46L304.87 261.64L305.12 261.82L305.36 262.01L305.59 262.2L305.82 262.4L306.05 262.6L306.27 262.8L306.48 263.01L306.69 263.22L306.9 263.43L307.1 263.65L307.3 263.87L307.49 264.09L307.67 264.32L307.85 264.55L308.02 264.78L308.19 265.01L308.36 265.25L308.51 265.49L308.67 265.73L308.81 265.98L308.95 266.23L309.09 266.48L309.22 266.73L309.34 266.99L309.46 267.25L309.57 267.51L309.67 267.77L309.77 268.03L309.86 268.3L310.03 268.86L310.17 269.41L310.28 269.97L310.36 270.53L310.42 271.08L310.44 271.64L310.44 272.19L310.42 272.73L310.37 273.28L310.29 273.82L310.19 274.35L310.06 274.88L309.91 275.41L309.74 275.93L309.54 276.44L309.32 276.94L309.07 277.44L308.81 277.93L308.52 278.41L308.21 278.88L307.87 279.34L307.52 279.79L307.15 280.22L306.75 280.65L306.34 281.06L305.9 281.47L305.45 281.85L304.98 282.23L304.49 282.59L303.98 282.93L303.45 283.26L302.91 283.58L302.35 283.87L301.77 284.15L301.18 284.42L300.57 284.66L299.95 284.89L299.31 285.09L298.65 285.28L297.99 285.45L297.18 285.61L296.37 285.77L295.57 285.94L294.76 286.12L293.96 286.31L293.16 286.5L292.37 286.69L291.57 286.9L290.78 287.1L290 287.32L289.21 287.54L288.43 287.76L287.65 287.99L286.87 288.23L286.09 288.47L285.32 288.72L284.55 288.97L283.78 289.23L283.02 289.5L282.26 289.77L281.5 290.05L280.75 290.33L280 290.62L279.25 290.91L278.5 291.21L277.76 291.52L277.02 291.83L276.29 292.15L275.56 292.47L274.83 292.79L274.1 293.13L273.38 293.47L272.67 293.81L271.95 294.16L271.24 294.51L270.53 294.87L269.83 295.24L269.13 295.61L268.44 295.99L267.75 296.37L268.14 296.26L268.54 296.15L268.94 296.04L269.34 295.94L269.74 295.84L270.14 295.74L270.54 295.65L270.95 295.56L271.35 295.47L271.75 295.38L272.16 295.29L272.56 295.21L272.97 295.13L273.38 295.06L273.79 294.98L274.2 294.91L274.6 294.84L275.01 294.77L275.42 294.71L275.84 294.65L276.25 294.59L276.66 294.53L277.07 294.48L277.48 294.43L277.9 294.38L278.31 294.33L278.73 294.29L279.14 294.25L279.56 294.21L279.97 294.17L280.39 294.14L280.81 294.11L281.22 294.08L281.64 294.06L282.06 294.04L282.47 294.02L282.89 294L283.31 293.98L283.73 293.97L284.15 293.96L284.65 293.95L285.15 293.95L285.66 293.95L286.16 293.95L286.66 293.95L287.16 293.96L287.66 293.98L288.16 293.99L288.66 294.02L289.17 294.04L289.67 294.07L290.16 294.1L290.66 294.14L291.16 294.18L291.66 294.22L292.16 294.27L292.65 294.32L293.15 294.38L293.65 294.44L294.14 294.5L294.64 294.57L295.13 294.64L295.62 294.71L296.11 294.79L296.6 294.87L297.09 294.96L297.58 295.05L298.07 295.14L298.56 295.24L299.04 295.34L299.53 295.44L300.01 295.55L300.5 295.66L300.98 295.78L301.46 295.9L301.94 296.02L302.41 296.15L302.89 296.28L303.37 296.42L303.84 296.55L304.45 296.74L305.05 296.94L305.63 297.15L306.2 297.39L306.76 297.63L307.3 297.9L307.83 298.18L308.34 298.47L308.84 298.78L309.32 299.1L309.78 299.43L310.23 299.78L310.67 300.14L311.08 300.51L311.48 300.89L311.87 301.28L312.23 301.68L312.58 302.1L312.91 302.52L313.22 302.95L313.51 303.39L313.79 303.84L314.04 304.3L314.28 304.76L314.49 305.24L314.68 305.71L314.86 306.2L315.01 306.69L315.14 307.18L315.25 307.68L315.34 308.19L315.41 308.7L315.45 309.21L315.47 309.72L315.47 310.24L315.44 310.76L315.4 311.28L315.32 311.81L315.23 312.33L315.11 312.85L315.02 313.15L314.93 313.44L314.83 313.73L314.73 314.02L314.61 314.3L314.49 314.58L314.37 314.86L314.23 315.14L314.09 315.41L313.94 315.68L313.79 315.95L313.62 316.22L313.46 316.48L313.28 316.74L313.1 316.99L312.91 317.24L312.72 317.49L312.52 317.74L312.31 317.98L312.1 318.22L311.88 318.45L311.65 318.68L311.42 318.91L311.18 319.13L310.94 319.35L310.69 319.56L310.44 319.77L310.18 319.98L309.91 320.18L309.64 320.37L309.37 320.57L309.09 320.75L308.8 320.94L308.51 321.11L308.21 321.29L307.91 321.45L307.61 321.62L307.29 321.77L306.98 321.93L306.66 322.07L306.33 322.22L306.01 322.35L305.68 322.48L305.34 322.6L305.01 322.72L304.67 322.83L304.33 322.94L303.99 323.04L303.65 323.13L303.3 323.21L302.95 323.29L302.6 323.37L302.25 323.44L301.9 323.5L301.55 323.55L301.19 323.6L300.84 323.65L300.48 323.68L300.12 323.71L299.77 323.74L299.41 323.76L299.05 323.77L298.69 323.77L298.33 323.77L297.97 323.77L297.61 323.75L297.25 323.73L296.89 323.71L296.53 323.67L296.18 323.64L295.82 323.59L295.46 323.54L295.11 323.48L294.75 323.42L294.4 323.35L294.05 323.27L293.7 323.19L293.35 323.1L293 323.01L292.65 322.91L292.47 322.85L292.29 322.79L292.1 322.74L291.92 322.69L291.74 322.64L291.55 322.59L291.36 322.54L291.18 322.5L290.99 322.45L290.8 322.41L290.62 322.37L290.43 322.33L290.24 322.29L290.05 322.25L289.86 322.22L289.67 322.18L289.48 322.15L289.29 322.12L289.1 322.09L288.91 322.06L288.72 322.04L288.53 322.01L288.33 321.99L288.14 321.97L287.95 321.95L287.76 321.93L287.56 321.92L287.37 321.9L287.17 321.89L286.98 321.88L286.79 321.87L286.59 321.86L286.4 321.85L286.2 321.85L286.01 321.84L285.82 321.84L285.62 321.84L285.43 321.84L285.23 321.84L285.04 321.85L284.61 321.86L284.19 321.88L283.77 321.91L283.35 321.94L282.94 321.98L282.52 322.03L282.11 322.08L281.69 322.14L281.28 322.21L280.87 322.28L280.47 322.36L280.06 322.44L279.66 322.53L279.26 322.63L278.87 322.74L278.47 322.85L278.08 322.96L277.69 323.08L277.31 323.21L276.93 323.35L276.55 323.48L276.17 323.63L275.8 323.78L275.43 323.94L275.06 324.1L274.7 324.27L274.34 324.45L273.99 324.63L273.64 324.81L273.29 325L272.95 325.2L272.61 325.4L272.28 325.61L271.95 325.83L271.63 326.05L271.31 326.27L270.99 326.5L270.68 326.73L270.38 326.97L270.08 327.22L269.73 327.52L269.4 327.83L269.07 328.14L268.76 328.46L268.45 328.78L268.16 329.11L267.88 329.45L267.6 329.79L267.34 330.13L267.09 330.48L266.86 330.83L266.63 331.19L266.41 331.55L266.21 331.92L266.01 332.29L265.83 332.66L265.66 333.04L265.5 333.42L265.35 333.8L265.21 334.19L265.09 334.58L264.98 334.97L264.88 335.36L264.79 335.76L264.71 336.16L264.64 336.56L264.59 336.96L264.55 337.36L264.52 337.76L264.5 338.17L264.5 338.57L264.5 338.98L264.52 339.38L264.56 339.79L264.6 340.2L264.66 340.6L264.73 341.01L264.81 341.41L264.91 341.82L265.02 342.22L265.14 342.59L265.27 342.95L265.41 343.31L265.56 343.67L265.72 344.02L265.89 344.36L266.07 344.71L266.26 345.04L266.46 345.38L266.67 345.71L266.89 346.03L267.11 346.35L267.35 346.67L267.6 346.98L267.85 347.28L268.11 347.58L268.39 347.87L268.67 348.16L268.95 348.45L269.25 348.72L269.55 348.99L269.87 349.26L270.19 349.52L270.51 349.77L270.85 350.02L271.19 350.26L271.54 350.49L271.9 350.72L272.26 350.94L272.63 351.15L273 351.35L273.39 351.55L273.78 351.74L274.17 351.93L274.58 352.1L274.98 352.27L275.4 352.43L275.82 352.58L276.24 352.73L276.67 352.86L276.85 352.92L277.04 352.97L277.22 353.03L277.41 353.08L277.59 353.13L277.78 353.18L277.96 353.22L278.15 353.27L278.34 353.31L278.53 353.36L278.71 353.4L278.9 353.44L279.09 353.47L279.28 353.51L279.47 353.54L279.66 353.58L279.85 353.61L280.04 353.64L280.23 353.67L280.43 353.69L280.62 353.72L280.81 353.74L281 353.76L281.2 353.79L281.39 353.8L281.58 353.82L281.78 353.84L281.97 353.85L282.16 353.86L282.36 353.87L282.55 353.88L282.75 353.89L282.94 353.9L283.14 353.9L283.33 353.9L283.53 353.9L283.72 353.9L283.92 353.9L284.11 353.9L284.31 353.89L284.73 353.88L285.15 353.86L285.57 353.83L285.98 353.8L286.4 353.76L286.81 353.71L287.23 353.66L287.64 353.6L288.05 353.53L288.45 353.46L288.86 353.38L289.26 353.3L289.66 353.21L290.06 353.11L290.46 353L290.85 352.9L291.24 352.78L291.63 352.66L292.01 352.53L292.39 352.4L292.77 352.26L293.15 352.11L293.52 351.96L293.89 351.8L294.25 351.64L294.61 351.47L294.97 351.3L295.32 351.12L295.67 350.93L296.02 350.74L296.36 350.55L296.69 350.34L297.03 350.14L297.35 349.92L297.68 349.7L297.99 349.48L298.31 349.25L298.62 349.02L298.92 348.78L299.22 348.53L299.35 348.43L299.47 348.32L299.6 348.21L299.72 348.1L299.85 347.99L299.97 347.88L300.09 347.76L300.21 347.65L300.33 347.54L300.44 347.42L300.56 347.3L300.67 347.19L300.78 347.07L300.89 346.95L301 346.83L301.11 346.71L301.22 346.59L301.32 346.47L301.43 346.34L301.53 346.22L301.63 346.1L301.73 345.97L301.83 345.85L301.92 345.72L302.02 345.59L302.11 345.46L302.2 345.33L302.3 345.2L302.39 345.07L302.47 344.94L302.56 344.81L302.64 344.68L302.73 344.55L302.81 344.41L302.89 344.28L302.97 344.14L303.05 344.01L303.12 343.87L303.2 343.73L303.27 343.59L303.45 343.21L303.64 342.83L303.85 342.46L304.06 342.09L304.29 341.74L304.53 341.38L304.79 341.04L305.05 340.7L305.32 340.37L305.61 340.04L305.91 339.73L306.21 339.42L306.53 339.12L306.86 338.83L307.2 338.54L307.54 338.26L307.9 338L308.26 337.74L308.63 337.49L309.02 337.24L309.4 337.01L309.8 336.79L310.21 336.57L310.62 336.37L311.04 336.17L311.47 335.98L311.9 335.81L312.34 335.64L312.79 335.49L313.24 335.34L313.7 335.21L314.16 335.08L314.63 334.97L315.1 334.86L315.58 334.77L316.07 334.69L316.55 334.62L317.05 334.57L317.54 334.52L318.04 334.49L318.54 334.46L319.04 334.45L319.54 334.46L320.03 334.47L320.52 334.5L321.01 334.53L321.5 334.58L321.98 334.64L322.46 334.71L322.94 334.8L323.41 334.89L323.88 334.99L324.34 335.11L324.8 335.24L325.25 335.37L325.7 335.52L326.15 335.68L326.58 335.84L327.01 336.02L327.44 336.21L327.86 336.41L328.27 336.61L328.67 336.83L329.07 337.06L329.46 337.29L329.84 337.54L330.21 337.79L330.57 338.05L330.93 338.32L331.27 338.61L331.61 338.89L331.94 339.19L332.26 339.5L332.56 339.81L332.86 340.13L333.15 340.46L333.42 340.8L333.69 341.15L333.94 341.5L334.18 341.86L334.35 342.14L334.52 342.41L334.68 342.69L334.83 342.98L334.97 343.26L335.11 343.55L335.23 343.83L335.35 344.12L335.46 344.41L335.57 344.71L335.66 345L335.75 345.3L335.83 345.59L335.9 345.89L335.96 346.19L336.02 346.49L336.06 346.79L336.1 347.09L336.14 347.4L336.16 347.7L336.17 348L336.18 348.3L336.18 348.61L336.17 348.91L336.16 349.21L336.13 349.52L336.1 349.82L336.06 350.12L336.01 350.42L335.95 350.72L335.89 351.02L335.81 351.32L335.73 351.62L335.64 351.92L335.55 352.22L335.44 352.51L335.33 352.8L335.21 353.1L335.08 353.39L334.94 353.67L334.74 354.07L334.54 354.47L334.33 354.86L334.12 355.25L333.9 355.64L333.68 356.03L333.45 356.41L333.22 356.8L332.99 357.18L332.75 357.56L332.51 357.94L332.26 358.31L332.01 358.69L331.75 359.06L331.49 359.43L331.23 359.79L330.96 360.16L330.68 360.52L330.41 360.88L330.12 361.24L329.84 361.6L329.55 361.95L329.25 362.3L328.95 362.65L328.65 363L328.34 363.35L328.03 363.69L327.72 364.03L327.4 364.36L327.08 364.7L326.75 365.03L326.42 365.36L326.08 365.69L325.74 366.01L325.4 366.34L325.05 366.66L324.7 366.97L324.35 367.29L323.99 367.6L323.63 367.91L322.86 368.55L322.09 369.17L321.29 369.78L320.49 370.38L319.67 370.97L318.84 371.54L318 372.09L317.14 372.63L316.28 373.16L315.4 373.67L314.51 374.17L313.61 374.65L312.7 375.12L311.78 375.57L310.85 376.01L309.91 376.44L308.96 376.84L308 377.24L307.03 377.61L306.06 377.97L305.07 378.32L304.08 378.65L303.08 378.96L302.07 379.26L301.05 379.54L300.03 379.81L299 380.06L297.97 380.29L296.92 380.51L295.88 380.71L294.82 380.89L293.76 381.06L292.7 381.21L291.63 381.34L290.56 381.46L289.48 381.56L288.4 381.64L287.32 381.7L286.23 381.75L285.14 381.78L285.02 381.78L284.9 381.78L284.77 381.79L284.65 381.79L284.52 381.79L284.4 381.79L284.27 381.79L284.15 381.79L284.02 381.79L283.9 381.8L283.77 381.8L283.65 381.8L283.52 381.8L283.39 381.79L283.27 381.79L283.14 381.79L283.02 381.79L282.89 381.79L282.76 381.79L282.64 381.79L282.51 381.78L282.38 381.78L282.26 381.78L282.13 381.78L282 381.77L281.88 381.77L281.75 381.76L281.62 381.76L281.5 381.76L281.37 381.75L281.24 381.75L281.12 381.74L280.99 381.74L280.86 381.73L280.73 381.72L280.61 381.72L280.48 381.71L280.35 381.71L280.23 381.7L280.1 381.69L279.72 381.66L279.35 381.64L278.98 381.62L278.6 381.61L278.23 381.6L277.85 381.59L277.48 381.58L277.1 381.58L276.73 381.59L276.36 381.59L275.98 381.6L275.61 381.62L275.24 381.64L274.86 381.66L274.49 381.68L274.12 381.71L273.75 381.75L273.38 381.78L273.01 381.82L272.64 381.87L272.27 381.91L271.9 381.96L271.53 382.02L271.17 382.08L270.8 382.14L270.44 382.2L270.07 382.27L269.71 382.34L269.35 382.42L268.99 382.5L268.63 382.58L268.27 382.67L267.91 382.76L267.55 382.85L267.2 382.95L266.84 383.05L266.49 383.16L266.14 383.26L265.79 383.38L265.44 383.49L258.6 385.96L258.25 386.09L257.9 386.22L257.55 386.35L257.21 386.49L256.86 386.63L256.52 386.78L256.18 386.93L255.85 387.08L255.51 387.23L255.18 387.39L254.85 387.55L254.53 387.71L254.2 387.87L253.88 388.04L253.56 388.21L253.24 388.39L252.92 388.57L252.61 388.75L252.3 388.93L251.99 389.11L251.69 389.3L251.39 389.49L251.09 389.69L250.79 389.89L250.49 390.08L250.2 390.29L249.91 390.49L249.62 390.7L249.34 390.91L249.06 391.12L248.78 391.34L248.51 391.56L248.23 391.78L247.96 392L247.7 392.23L247.43 392.46L247.17 392.69L246.92 392.92L246.66 393.16L246.41 393.4L219.26 419.56L218.82 419.97L218.36 420.36L217.89 420.73L217.41 421.09L216.91 421.43L216.39 421.75L215.87 422.05L215.34 422.34L214.79 422.6L214.23 422.85L213.67 423.09L213.1 423.3L212.51 423.5L211.93 423.67L211.33 423.83L210.73 423.97L210.12 424.1L209.51 424.2L208.9 424.29L208.28 424.35L207.66 424.4L207.04 424.43L206.41 424.45L205.79 424.44L205.17 424.41L204.54 424.37L203.92 424.3L203.3 424.22L202.68 424.12L202.07 424L201.46 423.86L200.85 423.7L200.25 423.52L199.66 423.32L199.07 423.1L198.49 422.87L197.92 422.61L197.36 422.33L196.81 422.04L196.26 421.72L157.21 397.96L156.68 397.63L156.18 397.29L155.69 396.93L155.23 396.57L154.78 396.19L154.36 395.79L153.95 395.39L153.57 394.98L153.21 394.55L152.86 394.12L152.54 393.68L152.24 393.23L151.96 392.77L151.7 392.31L151.47 391.84L151.25 391.36L151.06 390.88L150.88 390.39L150.73 389.9L150.6 389.4L150.5 388.9L150.41 388.39L150.35 387.89L150.31 387.38L150.3 386.87L150.3 386.36L150.33 385.85L150.39 385.34L150.46 384.83L150.56 384.32L150.68 383.82L150.83 383.31L151 382.81L151.19 382.31L151.41 381.82L151.65 381.33L151.91 380.85L152.2 380.37L152.52 379.9L152.85 379.43L172.63 353.06L172.86 352.73L173.09 352.41L173.32 352.08L173.54 351.76L173.76 351.43L173.97 351.09L174.17 350.76L174.38 350.43L174.57 350.09L174.77 349.75L174.95 349.41L175.14 349.07L175.32 348.73L175.49 348.38L175.66 348.03L175.82 347.69L175.98 347.34L176.14 346.99L176.29 346.63L176.43 346.28L176.57 345.92L176.71 345.57L176.84 345.21L176.96 344.85L177.08 344.49L177.2 344.13L177.31 343.77L177.41 343.4L177.51 343.04L177.61 342.68L177.7 342.31L177.78 341.94L177.86 341.57L177.94 341.2L178.01 340.83L178.08 340.46L178.14 340.09L178.19 339.72L178.24 339.35L178.29 338.97L178.35 338.38L178.42 337.78L178.49 337.19L178.56 336.6L178.64 336L178.72 335.41L178.8 334.82L178.89 334.22L178.97 333.63L179.06 333.04L179.15 332.45L179.25 331.85L179.35 331.26L179.45 330.67L179.55 330.08L179.65 329.49L179.76 328.9L179.87 328.31L179.99 327.72L180.1 327.13L180.22 326.54L180.34 325.95L180.47 325.37L180.59 324.78L180.72 324.19L180.85 323.6L180.99 323.02L181.13 322.43L181.27 321.84L181.41 321.26L181.55 320.67L181.7 320.09L181.85 319.51L182 318.92L182.16 318.34L182.32 317.76L182.48 317.17L182.64 316.59L182.81 316.01L182.97 315.43L183.08 315.06L183.18 314.69L183.28 314.33L183.36 313.96L183.45 313.59L183.52 313.22L183.59 312.85L183.66 312.47L183.71 312.1L183.77 311.73L183.81 311.36L183.85 310.98L183.89 310.61L183.91 310.24L183.94 309.86L183.95 309.49L183.96 309.11L183.96 308.74L183.96 308.37L183.95 307.99L183.94 307.62L183.92 307.24L183.89 306.87L183.86 306.5L183.82 306.12L183.78 305.75L183.73 305.38L183.67 305.01L183.61 304.64L183.54 304.27L183.46 303.9L183.38 303.53L183.3 303.16L183.2 302.79L183.1 302.42L183 302.06L182.89 301.69L182.77 301.33L182.65 300.97L182.52 300.6L181.9 298.66L181.34 296.72L180.83 294.77L180.38 292.81L179.98 290.85L179.64 288.89L179.36 286.92L179.13 284.96L178.96 282.99L178.85 281.02L178.78 279.06L178.78 277.09L178.83 275.13L178.93 273.17L179.09 271.22L179.3 269.27L179.56 267.32L179.88 265.38L180.26 263.45L180.69 261.53L181.17 259.61L181.7 257.7L182.29 255.81L182.92 253.92L183.62 252.05L184.36 250.19L185.16 248.34L186.01 246.5L186.91 244.68L187.86 242.88L188.86 241.09L189.92 239.32L191.02 237.57L192.18 235.83L193.39 234.12L194.65 232.42L195.96 230.75L197.31 229.09L198.72 227.46L200.18 225.86L200.48 225.56L200.78 225.28L201.09 225L201.4 224.73L201.73 224.47L202.06 224.22L202.4 223.97L202.75 223.74L203.1 223.51L203.46 223.29L203.83 223.07L204.2 222.87L204.58 222.67L204.96 222.48L205.35 222.31L205.75 222.14L206.15 221.97L206.55 221.82L206.96 221.68L207.37 221.54L207.79 221.42L208.21 221.3L208.64 221.19L209.07 221.09L209.5 221L209.94 220.92L210.38 220.85L210.82 220.79L211.26 220.74L211.71 220.69L212.15 220.66L212.6 220.64L213.05 220.63L213.51 220.62L213.96 220.63L214.41 220.65ZM212.79 230.12L212.57 230.14L212.36 230.17L212.14 230.2L211.93 230.24L211.72 230.28L211.51 230.33L211.3 230.39L211.1 230.46L210.9 230.53L210.7 230.61L210.51 230.69L210.31 230.79L210.13 230.88L209.94 230.99L209.76 231.1L209.59 231.22L209.42 231.34L209.25 231.47L209.09 231.61L208.94 231.76L207.65 233.18L206.4 234.63L205.2 236.09L204.05 237.58L202.94 239.08L201.87 240.6L200.85 242.14L199.87 243.69L198.94 245.26L198.06 246.85L197.22 248.45L196.42 250.06L195.67 251.69L194.97 253.33L194.31 254.97L193.71 256.64L193.14 258.31L192.63 259.99L192.16 261.68L191.73 263.37L191.36 265.08L191.03 266.79L190.75 268.51L190.52 270.23L190.33 271.96L190.2 273.69L190.11 275.42L190.07 277.16L190.07 278.9L190.13 280.64L190.24 282.39L190.39 284.13L190.59 285.87L190.85 287.61L191.15 289.35L191.5 291.08L191.9 292.81L192.35 294.54L192.86 296.26L193.41 297.98L193.58 298.46L193.74 298.95L193.9 299.43L194.04 299.92L194.18 300.4L194.31 300.89L194.43 301.38L194.55 301.87L194.65 302.36L194.75 302.86L194.84 303.35L194.92 303.84L195 304.34L195.07 304.83L195.12 305.33L195.17 305.82L195.22 306.32L195.25 306.82L195.28 307.32L195.3 307.81L195.31 308.31L195.31 308.81L195.3 309.31L195.29 309.8L195.27 310.3L195.24 310.8L195.2 311.3L195.15 311.79L195.1 312.29L195.04 312.79L194.97 313.28L194.89 313.78L194.8 314.27L194.71 314.76L194.61 315.26L194.5 315.75L194.38 316.24L194.25 316.73L194.12 317.22L193.97 317.71L193.82 318.25L193.66 318.8L193.51 319.35L193.36 319.9L193.21 320.45L193.06 321L192.92 321.54L192.78 322.09L192.64 322.65L192.5 323.2L192.37 323.75L192.24 324.3L192.11 324.85L191.98 325.4L191.86 325.95L191.74 326.51L191.62 327.06L191.5 327.61L191.39 328.17L191.28 328.72L191.17 329.28L191.06 329.83L190.96 330.39L190.86 330.94L190.76 331.5L190.66 332.06L190.57 332.61L190.48 333.17L190.39 333.73L190.3 334.28L190.22 334.84L190.14 335.4L190.06 335.96L189.98 336.52L189.91 337.07L189.83 337.63L189.77 338.19L189.7 338.75L189.63 339.31L189.57 339.87L189.52 340.35L189.45 340.83L189.38 341.31L189.3 341.78L189.22 342.26L189.12 342.73L189.03 343.21L188.92 343.68L188.81 344.15L188.69 344.62L188.57 345.09L188.44 345.56L188.3 346.02L188.16 346.49L188.01 346.95L187.86 347.41L187.7 347.87L187.53 348.33L187.35 348.79L187.17 349.24L186.99 349.7L186.79 350.15L186.6 350.6L186.39 351.05L186.18 351.49L185.96 351.94L185.74 352.38L185.51 352.82L185.27 353.26L185.03 353.7L184.78 354.13L184.53 354.56L184.27 354.99L184 355.42L183.73 355.84L183.45 356.27L183.17 356.69L182.88 357.1L182.58 357.52L182.28 357.93L162.48 384.31L162.37 384.46L162.27 384.62L162.17 384.78L162.09 384.94L162.01 385.1L161.93 385.27L161.87 385.43L161.81 385.6L161.76 385.77L161.72 385.93L161.69 386.1L161.67 386.27L161.65 386.44L161.64 386.61L161.63 386.78L161.64 386.95L161.65 387.12L161.67 387.29L161.7 387.46L161.73 387.62L161.78 387.79L161.82 387.95L161.88 388.12L161.94 388.28L162.01 388.44L162.09 388.59L162.18 388.75L162.27 388.9L162.37 389.05L162.47 389.2L162.59 389.34L162.71 389.48L162.83 389.62L162.97 389.76L163.11 389.89L163.25 390.01L163.4 390.14L163.56 390.26L163.73 390.37L163.9 390.48L202.97 414.25L203.15 414.36L203.34 414.45L203.52 414.55L203.71 414.63L203.91 414.71L204.1 414.79L204.3 414.85L204.5 414.91L204.7 414.96L204.91 415.01L205.11 415.05L205.32 415.09L205.52 415.11L205.73 415.14L205.94 415.15L206.15 415.16L206.36 415.16L206.56 415.16L206.77 415.15L206.98 415.13L207.19 415.11L207.39 415.08L207.59 415.04L207.8 415L208 414.96L208.2 414.9L208.39 414.84L208.59 414.78L208.78 414.71L208.96 414.63L209.15 414.54L209.33 414.45L209.51 414.36L209.68 414.26L209.86 414.15L210.02 414.04L210.18 413.92L210.34 413.79L210.49 413.66L210.64 413.52L237.79 387.36L238.12 387.04L238.46 386.73L238.8 386.42L239.15 386.11L239.5 385.8L239.86 385.5L240.22 385.2L240.58 384.91L240.95 384.62L241.32 384.33L241.69 384.05L242.07 383.77L242.45 383.49L242.84 383.21L243.23 382.94L243.62 382.68L244.02 382.42L244.42 382.16L244.82 381.9L245.23 381.65L245.64 381.4L246.05 381.16L246.47 380.92L246.89 380.68L247.31 380.45L247.74 380.22L248.17 379.99L248.6 379.77L249.04 379.56L249.48 379.34L249.92 379.13L250.36 378.93L250.81 378.73L251.26 378.53L251.72 378.34L252.17 378.15L252.63 377.97L253.1 377.79L253.56 377.61L254.03 377.44L260.88 374.96L261.35 374.8L261.83 374.65L262.31 374.5L262.79 374.35L263.27 374.21L263.75 374.07L264.24 373.94L264.72 373.82L265.21 373.7L265.7 373.58L266.2 373.47L266.69 373.36L267.18 373.26L267.68 373.16L268.18 373.07L268.67 372.98L269.17 372.9L269.68 372.83L270.18 372.75L270.68 372.69L271.18 372.62L271.69 372.57L272.19 372.52L272.7 372.47L273.21 372.43L273.72 372.39L274.22 372.36L274.73 372.33L275.24 372.31L275.75 372.29L276.26 372.28L276.77 372.28L277.28 372.27L277.79 372.28L278.31 372.29L278.82 372.3L279.33 372.32L279.84 372.34L280.35 372.37L280.86 372.41L280.96 372.41L281.06 372.42L281.16 372.42L281.26 372.43L281.36 372.43L281.46 372.43L281.56 372.44L281.66 372.44L281.76 372.44L281.86 372.45L281.96 372.45L282.06 372.45L282.16 372.45L282.26 372.46L282.36 372.46L282.46 372.46L282.56 372.46L282.66 372.46L282.76 372.47L282.86 372.47L282.96 372.47L283.06 372.47L283.16 372.47L283.26 372.47L283.36 372.47L283.46 372.47L283.56 372.47L283.66 372.47L283.76 372.47L283.86 372.48L283.96 372.48L284.06 372.48L284.16 372.48L284.27 372.48L284.37 372.48L284.47 372.48L284.57 372.48L284.67 372.48L284.87 372.48L285.74 372.45L286.6 372.42L287.46 372.37L288.32 372.3L289.18 372.22L290.03 372.13L290.88 372.02L291.73 371.91L292.57 371.77L293.4 371.63L294.24 371.47L295.07 371.29L295.89 371.11L296.71 370.91L297.52 370.7L298.33 370.47L299.13 370.24L299.93 369.99L300.72 369.73L301.5 369.45L302.27 369.16L303.04 368.86L303.81 368.55L304.56 368.23L305.31 367.89L306.05 367.54L306.78 367.18L307.51 366.81L308.22 366.42L308.93 366.03L309.63 365.62L310.31 365.2L310.99 364.77L311.66 364.33L312.32 363.88L312.97 363.41L313.61 362.94L314.24 362.45L314.86 361.95L315.47 361.44L315.75 361.2L316.04 360.95L316.32 360.7L316.6 360.45L316.87 360.2L317.14 359.94L317.41 359.69L317.68 359.43L317.94 359.17L318.2 358.9L318.46 358.64L318.71 358.37L318.96 358.1L319.21 357.83L319.45 357.56L319.69 357.28L319.93 357.01L320.16 356.73L320.39 356.45L320.62 356.16L320.84 355.88L321.06 355.59L321.28 355.31L321.49 355.02L321.7 354.73L321.91 354.43L322.11 354.14L322.31 353.84L322.5 353.55L322.7 353.25L322.89 352.95L323.07 352.64L323.26 352.34L323.43 352.03L323.61 351.73L323.78 351.42L323.95 351.11L324.11 350.8L324.27 350.48L324.43 350.17L324.48 350.07L324.52 349.98L324.56 349.88L324.6 349.78L324.63 349.68L324.67 349.58L324.7 349.48L324.72 349.38L324.75 349.28L324.77 349.18L324.79 349.08L324.81 348.98L324.82 348.88L324.83 348.78L324.84 348.68L324.84 348.58L324.85 348.48L324.85 348.38L324.85 348.28L324.84 348.17L324.83 348.07L324.82 347.97L324.81 347.87L324.79 347.77L324.78 347.67L324.75 347.57L324.73 347.47L324.7 347.37L324.68 347.27L324.64 347.18L324.61 347.08L324.57 346.98L324.53 346.88L324.49 346.79L324.45 346.69L324.4 346.6L324.35 346.5L324.3 346.41L324.24 346.32L324.18 346.23L324.12 346.13L324.05 346.04L323.98 345.95L323.91 345.86L323.84 345.77L323.76 345.68L323.69 345.6L323.61 345.51L323.52 345.43L323.44 345.35L323.35 345.27L323.27 345.2L323.18 345.12L323.09 345.05L322.99 344.97L322.9 344.9L322.8 344.84L322.7 344.77L322.6 344.7L322.5 344.64L322.39 344.58L322.28 344.52L322.18 344.46L322.07 344.41L321.96 344.35L321.85 344.3L321.73 344.25L321.62 344.21L321.5 344.16L321.38 344.12L321.26 344.08L321.14 344.04L321.02 344L320.9 343.97L320.78 343.93L320.65 343.9L320.53 343.87L320.4 343.85L320.27 343.83L320.14 343.8L319.93 343.79L319.71 343.79L319.5 343.79L319.29 343.79L319.07 343.8L318.86 343.82L318.66 343.84L318.45 343.87L318.24 343.91L318.04 343.95L317.84 343.99L317.64 344.04L317.45 344.1L317.25 344.16L317.06 344.22L316.88 344.29L316.69 344.37L316.51 344.45L316.33 344.53L316.16 344.62L315.99 344.72L315.82 344.82L315.66 344.92L315.5 345.03L315.34 345.14L315.19 345.26L315.05 345.38L314.91 345.5L314.77 345.63L314.64 345.76L314.51 345.9L314.39 346.04L314.27 346.18L314.16 346.33L314.06 346.48L313.96 346.63L313.87 346.79L313.78 346.95L313.7 347.11L313.62 347.28L313.51 347.5L313.4 347.71L313.28 347.93L313.16 348.14L313.03 348.35L312.91 348.56L312.78 348.77L312.65 348.98L312.52 349.19L312.39 349.39L312.25 349.6L312.11 349.8L311.97 350.01L311.83 350.21L311.68 350.41L311.53 350.61L311.38 350.81L311.23 351.01L311.07 351.2L310.92 351.4L310.76 351.59L310.6 351.78L310.43 351.97L310.27 352.16L310.1 352.35L309.93 352.54L309.76 352.73L309.58 352.91L309.41 353.1L309.23 353.28L309.05 353.46L308.86 353.64L308.68 353.82L308.49 353.99L308.3 354.17L308.11 354.34L307.92 354.51L307.72 354.69L307.52 354.85L307.32 355.02L306.87 355.4L306.41 355.76L305.94 356.12L305.47 356.47L304.99 356.81L304.5 357.15L304 357.47L303.49 357.79L302.98 358.1L302.47 358.4L301.94 358.69L301.41 358.97L300.87 359.24L300.33 359.51L299.78 359.77L299.23 360.01L298.67 360.25L298.11 360.48L297.54 360.7L296.96 360.92L296.38 361.12L295.8 361.31L295.21 361.5L294.61 361.67L294.02 361.84L293.42 362L292.81 362.14L292.2 362.28L291.59 362.41L290.97 362.53L290.35 362.64L289.73 362.74L289.11 362.83L288.48 362.91L287.85 362.98L287.21 363.04L286.58 363.08L285.94 363.12L285.3 363.15L284.66 363.17L283.6 363.19L282.54 363.17L281.48 363.13L280.44 363.05L279.4 362.95L278.38 362.82L277.36 362.66L276.35 362.47L275.36 362.25L274.38 362.01L273.41 361.74L272.45 361.45L271.51 361.13L270.58 360.79L269.67 360.42L268.78 360.02L267.9 359.61L267.04 359.17L266.2 358.7L265.38 358.22L264.58 357.71L263.8 357.18L263.04 356.63L262.3 356.06L261.59 355.47L260.9 354.85L260.23 354.22L259.59 353.57L258.97 352.91L258.38 352.22L257.82 351.51L257.29 350.79L256.78 350.05L256.3 349.3L255.85 348.53L255.43 347.74L255.05 346.94L254.69 346.13L254.37 345.29L254.08 344.45L253.9 343.81L253.75 343.17L253.61 342.53L253.49 341.89L253.39 341.24L253.32 340.6L253.26 339.96L253.22 339.31L253.2 338.67L253.21 338.03L253.23 337.39L253.27 336.75L253.33 336.11L253.41 335.48L253.51 334.85L253.63 334.22L253.77 333.59L253.93 332.97L254.1 332.35L254.3 331.73L254.51 331.12L254.75 330.51L255 329.91L255.27 329.31L255.55 328.72L255.86 328.13L256.18 327.55L256.53 326.98L256.89 326.41L257.26 325.85L257.66 325.3L258.07 324.75L258.5 324.22L258.95 323.69L259.42 323.17L259.9 322.65L260.4 322.15L260.92 321.66L261.45 321.17L262 320.7L262.45 320.32L262.92 319.96L263.38 319.6L263.86 319.25L264.34 318.9L264.83 318.57L265.33 318.24L265.84 317.93L266.35 317.62L266.87 317.32L267.39 317.02L267.92 316.74L268.46 316.46L269.01 316.2L269.55 315.94L270.11 315.69L270.67 315.45L271.24 315.22L271.81 315L272.38 314.79L272.96 314.58L273.55 314.39L274.14 314.2L274.73 314.03L275.33 313.86L275.94 313.7L276.54 313.56L277.15 313.42L277.77 313.29L278.38 313.17L279 313.06L279.63 312.96L280.25 312.87L280.88 312.79L281.52 312.73L282.15 312.67L282.79 312.62L283.42 312.58L284.07 312.55L284.71 312.53L285.01 312.52L285.32 312.51L285.62 312.51L285.93 312.51L286.23 312.51L286.54 312.52L286.84 312.52L287.14 312.53L287.45 312.54L287.75 312.56L288.05 312.58L288.36 312.59L288.66 312.62L288.96 312.64L289.26 312.67L289.56 312.7L289.86 312.73L290.17 312.77L290.47 312.8L290.76 312.84L291.06 312.88L291.36 312.93L291.66 312.98L291.96 313.03L292.25 313.08L292.55 313.13L292.85 313.19L293.14 313.25L293.44 313.31L293.73 313.38L294.02 313.44L294.31 313.51L294.6 313.59L294.89 313.66L295.18 313.74L295.47 313.82L295.76 313.9L296.05 313.98L296.33 314.07L296.62 314.16L296.73 314.19L296.85 314.23L296.96 314.26L297.08 314.28L297.2 314.31L297.31 314.33L297.43 314.35L297.55 314.37L297.67 314.39L297.79 314.41L297.91 314.42L298.03 314.43L298.15 314.44L298.26 314.44L298.38 314.45L298.5 314.45L298.62 314.45L298.74 314.45L298.86 314.45L298.98 314.44L299.1 314.43L299.22 314.42L299.34 314.41L299.46 314.39L299.57 314.38L299.69 314.36L299.81 314.34L299.93 314.32L300.04 314.29L300.16 314.27L300.27 314.24L300.39 314.21L300.5 314.17L300.61 314.14L300.72 314.1L300.84 314.06L300.95 314.02L301.06 313.98L301.16 313.93L301.27 313.89L301.38 313.84L301.49 313.78L301.59 313.73L301.7 313.68L301.8 313.62L301.9 313.56L301.99 313.5L302.09 313.44L302.19 313.38L302.28 313.31L302.37 313.24L302.46 313.18L302.55 313.11L302.63 313.04L302.71 312.96L302.8 312.89L302.88 312.81L302.95 312.74L303.03 312.66L303.1 312.58L303.17 312.5L303.24 312.42L303.31 312.34L303.37 312.25L303.44 312.17L303.5 312.08L303.56 311.99L303.61 311.9L303.67 311.81L303.72 311.72L303.77 311.63L303.81 311.54L303.86 311.45L303.9 311.35L303.94 311.26L303.98 311.16L304.01 311.06L304.04 310.96L304.07 310.87L304.1 310.77L304.13 310.59L304.15 310.41L304.16 310.23L304.17 310.05L304.17 309.87L304.16 309.7L304.14 309.52L304.12 309.35L304.09 309.18L304.05 309.01L304 308.84L303.95 308.67L303.89 308.5L303.82 308.34L303.75 308.18L303.67 308.02L303.58 307.86L303.49 307.71L303.39 307.56L303.28 307.41L303.17 307.27L303.05 307.13L302.93 306.99L302.8 306.85L302.67 306.72L302.53 306.59L302.38 306.47L302.23 306.35L302.07 306.23L301.91 306.12L301.75 306.02L301.57 305.91L301.4 305.82L301.22 305.72L301.03 305.64L300.84 305.55L300.64 305.48L300.45 305.4L300.24 305.34L300.03 305.28L299.66 305.17L299.28 305.06L298.9 304.96L298.53 304.86L298.15 304.76L297.77 304.67L297.38 304.58L297 304.49L296.62 304.41L296.24 304.32L295.85 304.24L295.47 304.17L295.08 304.09L294.69 304.02L294.3 303.96L293.92 303.89L293.53 303.83L293.14 303.77L292.75 303.72L292.36 303.66L291.96 303.61L291.57 303.57L291.18 303.52L290.79 303.48L290.39 303.44L290 303.41L289.6 303.38L289.21 303.35L288.81 303.32L288.42 303.3L288.02 303.28L287.63 303.26L287.23 303.25L286.83 303.23L286.44 303.23L286.04 303.22L285.64 303.22L285.24 303.22L284.85 303.22L284.45 303.23L283.58 303.26L282.71 303.3L281.85 303.35L280.99 303.42L280.13 303.5L279.27 303.6L278.42 303.71L277.57 303.83L276.73 303.96L275.89 304.11L275.05 304.28L274.22 304.45L273.4 304.64L272.58 304.84L271.76 305.05L270.95 305.28L270.15 305.52L269.35 305.77L268.56 306.04L267.77 306.31L266.99 306.6L266.22 306.91L265.46 307.22L264.7 307.55L263.95 307.88L263.21 308.24L262.47 308.6L261.75 308.97L261.03 309.36L260.32 309.75L259.62 310.16L258.93 310.58L258.25 311.02L257.57 311.46L256.91 311.91L256.26 312.38L255.61 312.86L254.98 313.34L254.36 313.84L253.75 314.35L253.62 314.46L253.49 314.56L253.35 314.66L253.21 314.76L253.07 314.85L252.92 314.93L252.77 315.02L252.62 315.09L252.47 315.17L252.31 315.24L252.15 315.31L251.99 315.37L251.83 315.42L251.67 315.48L251.5 315.53L251.33 315.57L251.17 315.61L250.99 315.65L250.82 315.68L250.65 315.71L250.48 315.73L250.3 315.75L250.13 315.76L249.95 315.77L249.78 315.77L249.6 315.77L249.42 315.77L249.25 315.76L249.07 315.75L248.89 315.73L248.72 315.71L248.54 315.68L248.37 315.65L248.19 315.61L248.02 315.57L247.85 315.53L247.68 315.47L247.51 315.42L247.34 315.36L247.18 315.29L247.01 315.23L246.85 315.15L246.7 315.08L246.54 315L246.39 314.91L246.25 314.82L246.11 314.73L245.97 314.64L245.84 314.54L245.71 314.44L245.59 314.33L245.47 314.23L245.35 314.12L245.24 314.01L245.13 313.89L245.03 313.77L244.93 313.65L244.84 313.53L244.75 313.4L244.66 313.28L244.59 313.15L244.51 313.02L244.44 312.88L244.38 312.75L244.32 312.61L244.27 312.48L244.22 312.34L244.17 312.2L244.14 312.05L244.1 311.91L244.08 311.77L244.05 311.62L244.04 311.47L244.03 311.33L244.02 311.18L244.02 311.03L244.03 310.88L244.04 310.73L244.06 310.58L244.09 310.43L244.11 310.28L244.14 310.13L244.17 309.99L244.2 309.84L244.23 309.69L244.26 309.54L244.3 309.39L244.33 309.24L244.37 309.1L244.4 308.95L244.44 308.8L244.48 308.65L244.51 308.51L244.55 308.36L244.59 308.21L244.64 308.07L244.68 307.92L244.72 307.77L244.76 307.63L244.81 307.48L244.85 307.34L244.9 307.19L244.95 307.05L245 306.9L245.04 306.76L245.09 306.61L245.15 306.47L245.2 306.32L245.25 306.18L245.3 306.03L245.36 305.89L245.41 305.75L245.47 305.6L245.52 305.46L245.58 305.32L245.64 305.17L245.7 305.03L245.76 304.89L245.82 304.75L245.88 304.61L246.34 303.66L246.83 302.73L247.37 301.81L247.94 300.9L248.55 300L249.21 299.12L249.9 298.24L250.64 297.38L251.41 296.54L252.23 295.7L253.08 294.88L253.98 294.07L254.91 293.27L255.88 292.48L256.9 291.71L257.95 290.95L259.04 290.2L260.18 289.46L261.35 288.74L262.56 288.03L263.81 287.33L265.1 286.65L266.43 285.97L267.8 285.31L269.21 284.66L270.66 284.03L272.15 283.41L273.67 282.8L275.24 282.2L276.84 281.62L278.49 281.05L280.17 280.49L281.89 279.94L283.65 279.41L285.45 278.89L287.29 278.38L289.17 277.89L291.09 277.41L293.04 276.94L295.03 276.48L295.26 276.43L295.48 276.36L295.69 276.29L295.9 276.21L296.1 276.13L296.3 276.04L296.49 275.95L296.67 275.85L296.86 275.74L297.03 275.63L297.2 275.51L297.36 275.39L297.52 275.27L297.67 275.14L297.81 275L297.95 274.86L298.08 274.72L298.2 274.57L298.32 274.42L298.43 274.27L298.53 274.11L298.63 273.95L298.72 273.78L298.8 273.62L298.87 273.45L298.94 273.28L298.99 273.1L299.04 272.93L299.08 272.75L299.12 272.57L299.14 272.39L299.16 272.21L299.16 272.03L299.16 271.84L299.15 271.66L299.13 271.47L299.1 271.28L299.06 271.1L299.02 270.91L298.96 270.73L298.89 270.54L298.82 270.37L298.73 270.19L298.64 270.02L298.54 269.86L298.43 269.69L298.32 269.54L298.2 269.38L298.07 269.24L297.94 269.09L297.8 268.96L297.65 268.82L297.5 268.69L297.34 268.57L297.18 268.45L297.01 268.34L296.84 268.23L296.66 268.13L296.48 268.04L296.29 267.95L296.1 267.86L295.91 267.78L295.71 267.71L295.51 267.65L295.31 267.59L295.1 267.53L294.89 267.49L294.68 267.45L294.46 267.41L294.25 267.39L294.03 267.37L293.81 267.35L293.59 267.35L293.37 267.35L293.14 267.36L292.92 267.37L292.69 267.4L292.47 267.43L292.24 267.47L292.02 267.51L289.76 268.03L287.54 268.57L285.37 269.12L283.24 269.69L281.15 270.28L279.1 270.88L277.1 271.5L275.14 272.14L273.22 272.8L271.35 273.47L269.52 274.16L267.73 274.86L265.99 275.58L264.29 276.32L262.63 277.07L261.02 277.84L259.44 278.63L257.92 279.43L256.43 280.26L254.99 281.09L253.6 281.95L252.24 282.82L250.93 283.7L249.67 284.6L248.45 285.52L247.27 286.46L246.14 287.41L245.05 288.38L244 289.36L243 290.36L242.04 291.38L241.13 292.41L240.26 293.46L239.43 294.52L238.65 295.6L237.92 296.7L237.22 297.81L236.58 298.94L235.97 300.08L235.42 301.24L235.34 301.41L235.25 301.57L235.16 301.73L235.06 301.88L234.95 302.03L234.84 302.18L234.72 302.32L234.59 302.45L234.46 302.59L234.33 302.72L234.19 302.84L234.04 302.96L233.89 303.07L233.74 303.18L233.58 303.29L233.41 303.39L233.24 303.48L233.07 303.57L232.9 303.66L232.72 303.74L232.53 303.81L232.35 303.88L232.16 303.95L231.97 304L231.77 304.05L231.58 304.1L231.38 304.14L231.18 304.18L230.97 304.21L230.77 304.23L230.56 304.24L230.36 304.25L230.15 304.26L229.94 304.26L229.73 304.25L229.52 304.23L229.31 304.21L229.1 304.18L228.89 304.15L228.68 304.1L228.47 304.06L228.26 304L228.06 303.94L227.87 303.87L227.67 303.8L227.49 303.72L227.3 303.64L227.12 303.55L226.95 303.46L226.78 303.36L226.62 303.26L226.46 303.15L226.3 303.04L226.15 302.92L226.01 302.8L225.87 302.68L225.74 302.55L225.62 302.42L225.5 302.29L225.38 302.15L225.27 302L225.17 301.86L225.08 301.71L224.99 301.56L224.9 301.41L224.83 301.25L224.76 301.09L224.7 300.93L224.64 300.77L224.59 300.6L224.55 300.44L224.52 300.27L224.5 300.1L224.48 299.93L224.47 299.75L224.46 299.58L224.47 299.41L224.48 299.23L224.5 299.05L224.53 298.88L224.81 297.54L225.12 296.2L225.48 294.86L225.87 293.52L226.3 292.18L226.77 290.84L227.28 289.49L227.83 288.14L228.41 286.79L229.04 285.45L229.71 284.1L230.41 282.74L231.15 281.39L231.94 280.04L232.76 278.68L233.62 277.33L234.52 275.97L235.45 274.61L236.43 273.26L237.44 271.9L238.5 270.54L239.59 269.18L240.72 267.82L241.89 266.46L243.09 265.1L244.34 263.74L245.62 262.37L246.95 261.01L248.31 259.65L249.71 258.29L251.14 256.92L252.62 255.56L254.13 254.2L255.68 252.83L257.27 251.47L258.9 250.11L260.57 248.75L262.27 247.38L264.01 246.02L265.79 244.66L265.87 244.6L265.96 244.53L266.04 244.47L266.11 244.4L266.19 244.33L266.27 244.27L266.34 244.2L266.41 244.13L266.48 244.06L266.55 243.98L266.61 243.91L266.68 243.83L266.74 243.76L266.8 243.68L266.86 243.6L266.91 243.53L266.97 243.45L267.02 243.37L267.07 243.29L267.12 243.2L267.17 243.12L267.21 243.04L267.25 242.95L267.29 242.87L267.33 242.79L267.37 242.7L267.4 242.61L267.44 242.53L267.47 242.44L267.49 242.35L267.52 242.26L267.54 242.17L267.57 242.08L267.59 241.99L267.6 241.9L267.62 241.81L267.63 241.72L267.64 241.63L267.65 241.53L267.66 241.44L267.66 241.3L267.66 241.16L267.66 241.02L267.65 240.88L267.63 240.74L267.61 240.61L267.58 240.47L267.55 240.34L267.52 240.2L267.48 240.07L267.44 239.94L267.39 239.81L267.33 239.68L267.28 239.55L267.21 239.43L267.15 239.3L267.08 239.18L267 239.06L266.92 238.94L266.84 238.83L266.75 238.71L266.66 238.6L266.57 238.49L266.47 238.38L266.36 238.28L266.26 238.17L266.15 238.07L266.03 237.97L265.91 237.88L265.79 237.79L265.67 237.7L265.54 237.61L265.41 237.53L265.27 237.44L265.13 237.37L264.99 237.29L264.85 237.22L264.7 237.15L264.55 237.09L264.39 237.03L264.24 236.97L264.08 236.92L263.92 236.87L263.76 236.82L263.6 236.78L263.44 236.74L263.28 236.71L263.11 236.68L262.95 236.66L262.79 236.64L262.62 236.62L262.46 236.61L262.29 236.6L262.13 236.59L261.96 236.59L261.8 236.59L261.63 236.6L261.47 236.61L261.31 236.63L261.14 236.65L260.98 236.67L260.82 236.69L260.66 236.73L260.5 236.76L260.34 236.8L260.19 236.84L260.03 236.88L259.88 236.93L259.72 236.99L259.57 237.04L259.43 237.1L259.28 237.17L259.13 237.24L258.99 237.31L258.85 237.38L258.71 237.46L258.58 237.54L258.44 237.63L258.31 237.72L258.18 237.81L256.41 239.16L254.68 240.51L252.98 241.86L251.31 243.22L249.68 244.57L248.08 245.93L246.51 247.29L244.98 248.65L243.49 250.01L242.03 251.37L240.6 252.73L239.21 254.09L237.85 255.46L236.53 256.82L235.24 258.19L233.99 259.56L232.77 260.93L231.59 262.3L230.44 263.67L229.32 265.04L228.25 266.41L227.2 267.78L226.19 269.16L225.22 270.53L224.28 271.91L223.38 273.28L222.51 274.66L221.68 276.03L220.88 277.41L220.12 278.79L219.39 280.16L218.7 281.54L218.04 282.92L217.42 284.29L216.84 285.67L216.29 287.05L215.77 288.42L215.3 289.8L214.85 291.18L214.45 292.56L214.4 292.71L214.34 292.86L214.29 293.02L214.22 293.16L214.15 293.31L214.07 293.45L213.99 293.59L213.9 293.73L213.81 293.87L213.71 294L213.61 294.13L213.5 294.25L213.39 294.37L213.27 294.49L213.15 294.61L213.02 294.72L212.89 294.83L212.76 294.93L212.62 295.03L212.48 295.13L212.33 295.22L212.18 295.31L212.02 295.4L211.87 295.48L211.71 295.56L211.54 295.63L211.38 295.7L211.21 295.76L211.03 295.82L210.86 295.88L210.68 295.93L210.5 295.97L210.32 296.01L210.14 296.05L209.95 296.08L209.76 296.1L209.57 296.12L209.38 296.14L209.18 296.15L208.99 296.15L208.94 296.15L208.74 296.15L208.55 296.14L208.36 296.13L208.17 296.11L207.98 296.09L207.8 296.06L207.61 296.02L207.43 295.99L207.25 295.94L207.07 295.89L206.9 295.84L206.73 295.78L206.56 295.72L206.39 295.65L206.23 295.58L206.07 295.51L205.91 295.43L205.75 295.35L205.6 295.26L205.46 295.17L205.31 295.07L205.17 294.97L205.04 294.87L204.91 294.76L204.78 294.65L204.66 294.54L204.54 294.42L204.42 294.3L204.31 294.18L204.21 294.05L204.11 293.92L204.01 293.79L203.92 293.66L203.84 293.52L203.76 293.38L203.69 293.23L203.62 293.08L203.56 292.94L203.5 292.78L203.45 292.63L203.04 291.19L202.67 289.76L202.34 288.32L202.05 286.87L201.8 285.43L201.6 283.98L201.43 282.53L201.3 281.08L201.21 279.63L201.17 278.18L201.16 276.74L201.19 275.29L201.26 273.85L201.37 272.41L201.52 270.97L201.71 269.54L201.94 268.11L202.21 266.69L202.51 265.27L202.86 263.86L203.24 262.46L203.66 261.06L204.12 259.67L204.61 258.29L205.15 256.92L205.72 255.56L206.33 254.2L206.97 252.86L207.66 251.53L208.38 250.21L209.13 248.9L209.93 247.61L210.76 246.33L211.63 245.06L212.53 243.8L213.47 242.56L214.45 241.34L215.46 240.13L216.51 238.94L217.59 237.77L217.74 237.62L217.88 237.47L218.01 237.31L218.13 237.15L218.24 236.99L218.34 236.83L218.44 236.66L218.53 236.49L218.6 236.32L218.67 236.15L218.73 235.97L218.79 235.8L218.83 235.62L218.87 235.44L218.9 235.27L218.91 235.09L218.93 234.91L218.93 234.73L218.92 234.55L218.91 234.37L218.89 234.19L218.86 234.02L218.82 233.84L218.77 233.67L218.71 233.49L218.65 233.32L218.58 233.15L218.5 232.98L218.41 232.82L218.32 232.65L218.21 232.49L218.1 232.34L217.98 232.18L217.85 232.03L217.72 231.88L217.57 231.74L217.42 231.6L217.26 231.46L217.1 231.33L216.92 231.21L216.74 231.08L216.55 230.97L216.36 230.86L216.17 230.76L215.97 230.67L215.77 230.59L215.57 230.51L215.37 230.44L215.16 230.37L214.95 230.31L214.74 230.26L214.52 230.22L214.31 230.18L214.09 230.15L213.88 230.13L213.66 230.12L213.44 230.11L213.22 230.11L213.01 230.11L212.79 230.12ZM434.82 145.55L435.44 145.6L436.06 145.66L436.68 145.75L437.3 145.85L437.91 145.97L438.52 146.11L439.13 146.27L439.73 146.45L440.32 146.64L440.91 146.86L441.49 147.1L442.06 147.35L442.62 147.63L443.18 147.93L443.72 148.24L482.79 172L483.32 172.33L483.82 172.67L484.31 173.03L484.77 173.4L485.22 173.78L485.64 174.17L486.05 174.57L486.43 174.98L486.79 175.41L487.14 175.84L487.46 176.28L487.76 176.73L488.04 177.19L488.3 177.65L488.53 178.12L488.75 178.6L488.94 179.09L489.12 179.57L489.27 180.07L489.4 180.56L489.5 181.06L489.59 181.57L489.65 182.07L489.69 182.58L489.7 183.09L489.7 183.6L489.67 184.11L489.61 184.62L489.54 185.13L489.44 185.64L489.32 186.15L489.17 186.65L489 187.15L488.81 187.65L488.59 188.14L488.35 188.63L488.09 189.11L487.8 189.59L487.48 190.07L487.15 190.53L467.35 216.91L467.12 217.23L466.89 217.55L466.66 217.88L466.44 218.21L466.23 218.54L466.01 218.87L465.81 219.2L465.61 219.54L465.41 219.87L465.22 220.21L465.03 220.55L464.84 220.89L464.67 221.24L464.49 221.58L464.32 221.93L464.16 222.28L464 222.63L463.85 222.98L463.7 223.33L463.55 223.68L463.41 224.04L463.28 224.39L463.15 224.75L463.02 225.11L462.9 225.47L462.79 225.83L462.68 226.19L462.57 226.56L462.47 226.92L462.37 227.29L462.28 227.65L462.2 228.02L462.12 228.39L462.04 228.76L461.97 229.13L461.91 229.5L461.85 229.87L461.79 230.24L461.74 230.62L461.7 230.99L461.63 231.58L461.56 232.18L461.49 232.77L461.42 233.37L461.34 233.96L461.26 234.55L461.18 235.15L461.1 235.74L461.01 236.33L460.92 236.93L460.83 237.52L460.73 238.11L460.64 238.7L460.54 239.29L460.43 239.88L460.33 240.47L460.22 241.06L460.11 241.65L460 242.24L459.88 242.83L459.76 243.42L459.64 244.01L459.52 244.6L459.39 245.19L459.26 245.77L459.13 246.36L458.99 246.95L458.86 247.53L458.72 248.12L458.58 248.7L458.43 249.29L458.28 249.87L458.13 250.46L457.98 251.04L457.83 251.62L457.67 252.21L457.51 252.79L457.34 253.37L457.18 253.95L457.01 254.53L456.9 254.9L456.8 255.27L456.71 255.64L456.62 256.01L456.54 256.38L456.46 256.75L456.39 257.12L456.33 257.49L456.27 257.86L456.22 258.23L456.17 258.61L456.13 258.98L456.1 259.35L456.07 259.73L456.05 260.1L456.03 260.47L456.02 260.85L456.02 261.22L456.02 261.6L456.03 261.97L456.04 262.35L456.06 262.72L456.09 263.09L456.12 263.47L456.16 263.84L456.21 264.21L456.26 264.58L456.31 264.95L456.38 265.33L456.44 265.7L456.52 266.07L456.6 266.44L456.69 266.8L456.78 267.17L456.88 267.54L456.98 267.91L457.09 268.27L457.21 268.63L457.33 269L457.46 269.36L458.08 271.3L458.65 273.24L459.16 275.2L459.61 277.15L460 279.11L460.34 281.07L460.63 283.04L460.86 285L461.03 286.97L461.15 288.94L461.21 290.9L461.22 292.87L461.17 294.83L461.07 296.79L460.91 298.75L460.7 300.7L460.43 302.64L460.11 304.58L459.74 306.51L459.31 308.44L458.83 310.35L458.3 312.26L457.72 314.16L457.08 316.04L456.39 317.92L455.64 319.78L454.85 321.63L454 323.46L453.1 325.28L452.15 327.09L451.14 328.88L450.09 330.65L448.98 332.4L447.83 334.14L446.62 335.85L445.36 337.55L444.05 339.22L442.7 340.88L441.29 342.51L439.83 344.12L439.58 344.35L439.33 344.58L439.07 344.81L438.8 345.03L438.53 345.24L438.26 345.45L437.98 345.66L437.69 345.86L437.4 346.05L437.1 346.24L436.81 346.42L436.5 346.6L436.19 346.77L435.88 346.94L435.56 347.1L435.24 347.26L434.92 347.4L434.59 347.55L434.26 347.69L433.93 347.82L433.59 347.94L433.25 348.06L432.9 348.18L432.55 348.28L432.2 348.39L431.85 348.48L431.49 348.57L431.14 348.65L430.77 348.73L430.41 348.8L430.05 348.86L429.68 348.92L429.31 348.97L428.94 349.02L428.57 349.05L428.19 349.08L427.81 349.11L427.44 349.13L427.06 349.14L426.68 349.14L426.38 349.14L426.08 349.13L425.78 349.12L425.48 349.11L425.18 349.09L424.89 349.06L424.59 349.04L424.29 349L424 348.97L423.71 348.93L423.42 348.88L423.12 348.83L422.83 348.78L422.55 348.72L422.26 348.66L421.97 348.59L421.69 348.52L421.41 348.45L421.13 348.37L420.85 348.29L420.57 348.2L420.3 348.11L420.03 348.02L419.75 347.92L419.49 347.82L419.22 347.71L418.95 347.6L418.69 347.48L418.43 347.37L418.17 347.24L417.92 347.12L417.67 346.99L417.42 346.86L417.17 346.72L416.93 346.58L416.68 346.43L416.45 346.28L416.21 346.13L415.98 345.98L415.75 345.82L415.23 345.44L414.74 345.04L414.26 344.63L413.82 344.21L413.39 343.78L412.99 343.34L412.61 342.89L412.26 342.42L411.93 341.95L411.63 341.47L411.34 340.99L411.08 340.49L410.85 339.99L410.64 339.48L410.45 338.97L410.29 338.45L410.15 337.93L410.04 337.4L409.95 336.88L409.88 336.35L409.84 335.81L409.83 335.28L409.84 334.75L409.87 334.21L409.93 333.68L410.01 333.15L410.11 332.62L410.25 332.1L410.4 331.57L410.59 331.05L410.79 330.54L411.02 330.03L411.28 329.53L411.56 329.03L411.87 328.54L412.2 328.06L412.56 327.58L412.95 327.12L413.36 326.66L413.79 326.22L414.31 325.65L414.81 325.09L415.31 324.51L415.79 323.94L416.27 323.36L416.74 322.77L417.2 322.18L417.65 321.58L418.09 320.98L418.52 320.38L418.94 319.77L419.35 319.16L419.75 318.55L420.14 317.93L420.53 317.3L420.9 316.67L421.26 316.04L421.62 315.41L421.96 314.77L422.29 314.13L422.62 313.48L422.93 312.83L423.24 312.18L423.53 311.53L423.82 310.87L424.09 310.21L424.36 309.54L424.61 308.88L424.85 308.21L425.09 307.53L425.31 306.86L425.52 306.18L425.73 305.5L425.92 304.82L426.1 304.13L426.27 303.45L426.43 302.76L426.59 302.07L426.73 301.37L426.85 300.68L426.12 301.76L425.38 302.83L424.63 303.9L423.86 304.97L423.09 306.03L422.3 307.08L421.5 308.12L420.69 309.17L419.87 310.2L419.04 311.23L418.2 312.25L417.35 313.27L416.49 314.28L415.62 315.28L414.74 316.28L413.85 317.27L412.94 318.25L412.03 319.23L411.11 320.2L410.18 321.17L409.23 322.13L408.28 323.08L407.32 324.03L406.34 324.96L405.36 325.9L404.37 326.82L403.37 327.74L402.35 328.65L401.33 329.55L400.3 330.45L399.26 331.34L398.21 332.22L397.15 333.09L396.08 333.96L395 334.82L393.92 335.68L392.82 336.52L391.71 337.36L390.6 338.19L389.47 339.01L388.95 339.39L388.41 339.75L387.86 340.09L387.3 340.4L386.73 340.7L386.14 340.97L385.55 341.23L384.95 341.46L384.34 341.68L383.72 341.87L383.09 342.04L382.46 342.19L381.83 342.32L381.19 342.44L380.54 342.53L379.9 342.6L379.25 342.64L378.6 342.67L377.95 342.68L377.3 342.67L376.65 342.64L376 342.59L375.36 342.51L374.72 342.42L374.08 342.31L373.45 342.18L372.82 342.02L372.2 341.85L371.59 341.66L370.98 341.44L370.39 341.21L369.8 340.96L369.22 340.68L368.65 340.39L368.1 340.08L367.56 339.74L367.03 339.39L366.51 339.02L366.01 338.62L365.53 338.21L365.3 338L365.08 337.8L364.86 337.58L364.65 337.37L364.45 337.15L364.25 336.93L364.05 336.7L363.87 336.47L363.68 336.24L363.51 336.01L363.34 335.78L363.17 335.54L363.01 335.3L362.86 335.05L362.71 334.81L362.57 334.56L362.43 334.31L362.3 334.06L362.18 333.81L362.06 333.55L361.95 333.29L361.85 333.03L361.75 332.77L361.66 332.51L361.57 332.25L361.49 331.98L361.41 331.71L361.35 331.45L361.29 331.18L361.23 330.91L361.18 330.63L361.14 330.36L361.11 330.09L361.08 329.81L361.06 329.54L361.04 329.26L361.03 328.99L361.03 328.71L361.03 328.43L361.05 328.15L361.06 327.87L361.09 327.6L361.12 327.32L361.16 327.05L361.2 326.77L361.26 326.5L361.31 326.23L361.38 325.96L361.45 325.69L361.53 325.42L361.61 325.16L361.7 324.89L361.79 324.63L361.9 324.37L362 324.11L362.12 323.85L362.24 323.6L362.37 323.35L362.5 323.1L362.64 322.85L362.78 322.6L362.93 322.36L363.09 322.12L363.25 321.88L363.42 321.64L363.59 321.41L363.77 321.18L363.95 320.95L364.14 320.72L364.34 320.5L364.54 320.28L364.74 320.07L364.96 319.85L365.17 319.64L365.4 319.44L365.62 319.23L365.86 319.03L366.09 318.84L366.34 318.65L366.59 318.46L367.21 317.99L367.83 317.52L368.45 317.05L369.07 316.57L369.69 316.09L370.3 315.61L370.9 315.13L371.51 314.65L372.11 314.16L372.71 313.67L373.3 313.17L373.9 312.68L374.48 312.18L375.07 311.68L375.65 311.18L376.23 310.67L376.81 310.17L377.38 309.66L377.95 309.14L378.52 308.63L379.08 308.11L379.64 307.59L380.2 307.07L380.75 306.55L381.3 306.02L381.85 305.49L382.39 304.96L382.93 304.43L383.47 303.89L384 303.35L384.53 302.81L385.06 302.27L385.59 301.72L386.11 301.18L386.62 300.63L387.14 300.08L387.65 299.52L388.15 298.96L388.66 298.41L389.16 297.85L388.27 298.31L387.39 298.76L386.49 299.21L385.6 299.66L384.7 300.09L383.79 300.52L382.88 300.95L381.97 301.37L381.06 301.78L380.14 302.19L379.21 302.59L378.28 302.98L377.35 303.37L376.42 303.75L375.48 304.13L374.54 304.5L373.59 304.86L372.64 305.21L371.69 305.56L370.73 305.91L369.77 306.25L368.81 306.58L367.85 306.9L366.88 307.22L365.9 307.53L364.93 307.84L363.95 308.14L362.97 308.43L361.98 308.71L361 308.99L360.01 309.27L359.01 309.53L358.02 309.79L357.02 310.05L356.02 310.29L355.01 310.53L354.01 310.77L353 310.99L351.99 311.21L350.97 311.43L350.65 311.5L350.32 311.56L349.99 311.62L349.66 311.68L349.33 311.73L349 311.77L348.67 311.81L348.34 311.84L348.01 311.87L347.68 311.89L347.35 311.91L347.01 311.92L346.68 311.92L346.35 311.92L346.02 311.92L345.69 311.91L345.36 311.89L345.03 311.87L344.7 311.85L344.37 311.81L344.04 311.78L343.71 311.74L343.39 311.69L343.06 311.64L342.74 311.58L342.41 311.52L342.09 311.45L341.77 311.38L341.46 311.3L341.14 311.21L340.82 311.12L340.51 311.03L340.2 310.93L339.89 310.83L339.58 310.72L339.28 310.6L338.98 310.48L338.68 310.36L338.38 310.23L338.09 310.1L337.79 309.96L337.51 309.81L337.22 309.66L336.94 309.51L336.67 309.35L336.4 309.19L336.13 309.03L335.87 308.86L335.61 308.68L335.36 308.51L335.11 308.33L334.87 308.14L334.63 307.95L334.39 307.76L334.16 307.56L333.94 307.36L333.71 307.16L333.5 306.95L333.29 306.74L333.08 306.53L332.88 306.31L332.69 306.09L332.5 305.87L332.31 305.65L332.13 305.42L331.96 305.18L331.79 304.95L331.63 304.71L331.47 304.47L331.32 304.23L331.17 303.98L331.03 303.73L330.9 303.48L330.77 303.23L330.64 302.97L330.53 302.72L330.42 302.46L330.31 302.19L330.21 301.93L330.12 301.66L329.95 301.11L329.82 300.55L329.7 299.99L329.62 299.43L329.57 298.88L329.54 298.33L329.54 297.78L329.56 297.23L329.61 296.68L329.69 296.14L329.79 295.61L329.92 295.08L330.07 294.55L330.24 294.04L330.44 293.52L330.66 293.02L330.91 292.52L331.18 292.03L331.47 291.56L331.78 291.09L332.11 290.63L332.46 290.18L332.84 289.74L333.23 289.31L333.65 288.9L334.08 288.5L334.53 288.11L335.01 287.73L335.5 287.37L336 287.03L336.53 286.7L337.07 286.39L337.63 286.09L338.21 285.81L338.8 285.55L339.41 285.3L340.04 285.08L340.67 284.87L341.33 284.68L342 284.52L342.81 284.36L343.61 284.19L344.42 284.02L345.22 283.84L346.02 283.66L346.82 283.47L347.62 283.27L348.41 283.07L349.2 282.86L349.99 282.65L350.78 282.43L351.56 282.21L352.34 281.98L353.12 281.74L353.9 281.5L354.67 281.25L355.44 281L356.21 280.74L356.97 280.47L357.73 280.2L358.49 279.92L359.25 279.64L360 279.35L360.75 279.06L361.49 278.76L362.24 278.45L362.97 278.14L363.71 277.83L364.44 277.51L365.17 277.18L365.9 276.85L366.62 276.51L367.34 276.17L368.05 275.82L368.76 275.46L369.47 275.1L370.17 274.74L370.87 274.37L371.57 273.99L372.26 273.61L371.86 273.72L371.46 273.83L371.07 273.93L370.67 274.04L370.27 274.14L369.86 274.23L369.46 274.33L369.06 274.42L368.66 274.51L368.25 274.6L367.85 274.68L367.44 274.76L367.03 274.84L366.63 274.92L366.22 275L365.81 275.07L365.4 275.14L364.99 275.2L364.58 275.27L364.17 275.33L363.76 275.39L363.35 275.44L362.93 275.5L362.52 275.55L362.11 275.6L361.69 275.64L361.28 275.69L360.86 275.73L360.45 275.77L360.03 275.8L359.62 275.83L359.2 275.87L358.78 275.89L358.37 275.92L357.95 275.94L357.53 275.96L357.11 275.98L356.69 275.99L356.28 276L355.86 276.01L355.35 276.02L354.85 276.03L354.35 276.03L353.85 276.03L353.35 276.03L352.84 276.02L352.34 276L351.84 275.99L351.34 275.97L350.84 275.94L350.34 275.91L349.84 275.88L349.34 275.85L348.84 275.81L348.34 275.76L347.85 275.71L347.35 275.66L346.85 275.61L346.36 275.55L345.86 275.49L345.37 275.42L344.88 275.35L344.38 275.27L343.89 275.19L343.4 275.11L342.91 275.03L342.42 274.94L341.93 274.84L341.45 274.74L340.96 274.64L340.48 274.54L339.99 274.43L339.51 274.32L339.03 274.2L338.55 274.08L338.07 273.96L337.59 273.83L337.11 273.7L336.64 273.56L336.17 273.42L335.56 273.24L334.96 273.04L334.38 272.82L333.81 272.59L333.25 272.34L332.71 272.08L332.18 271.8L331.67 271.51L331.17 271.2L330.69 270.88L330.22 270.55L329.77 270.2L329.34 269.84L328.92 269.47L328.52 269.09L328.14 268.7L327.77 268.29L327.42 267.88L327.1 267.46L326.78 267.02L326.49 266.58L326.22 266.13L325.96 265.68L325.73 265.21L325.52 264.74L325.32 264.26L325.15 263.78L325 263.29L324.86 262.79L324.75 262.29L324.67 261.79L324.6 261.28L324.56 260.77L324.53 260.25L324.54 259.74L324.56 259.22L324.61 258.69L324.68 258.17L324.78 257.65L324.9 257.12L324.98 256.83L325.07 256.54L325.17 256.25L325.28 255.96L325.39 255.68L325.51 255.39L325.64 255.12L325.77 254.84L325.92 254.56L326.06 254.29L326.22 254.03L326.38 253.76L326.55 253.5L326.72 253.24L326.91 252.99L327.09 252.73L327.29 252.48L327.49 252.24L327.7 252L327.91 251.76L328.13 251.53L328.35 251.3L328.58 251.07L328.82 250.85L329.06 250.63L329.31 250.42L329.57 250.21L329.83 250L330.09 249.8L330.36 249.6L330.64 249.41L330.92 249.22L331.2 249.04L331.5 248.86L331.79 248.69L332.09 248.52L332.4 248.36L332.71 248.2L333.03 248.05L333.35 247.9L333.67 247.76L334 247.63L334.33 247.5L334.66 247.37L335 247.26L335.33 247.14L335.67 247.04L336.02 246.94L336.36 246.85L336.7 246.76L337.05 246.68L337.4 246.61L337.75 246.54L338.1 246.48L338.46 246.42L338.81 246.37L339.17 246.33L339.52 246.29L339.88 246.26L340.24 246.24L340.6 246.22L340.96 246.21L341.32 246.2L341.68 246.2L342.04 246.21L342.4 246.22L342.75 246.24L343.11 246.27L343.47 246.3L343.83 246.34L344.19 246.38L344.54 246.44L344.9 246.49L345.25 246.56L345.61 246.63L345.96 246.7L346.31 246.79L346.66 246.87L347.01 246.97L347.35 247.07L347.53 247.13L347.72 247.18L347.9 247.23L348.09 247.29L348.27 247.34L348.46 247.38L348.64 247.43L348.83 247.48L349.02 247.52L349.2 247.56L349.39 247.6L349.58 247.64L349.77 247.68L349.96 247.72L350.15 247.75L350.34 247.79L350.53 247.82L350.72 247.85L350.91 247.88L351.1 247.91L351.29 247.93L351.48 247.96L351.67 247.98L351.87 248L352.06 248.02L352.25 248.04L352.44 248.06L352.64 248.07L352.83 248.08L353.03 248.1L353.22 248.11L353.41 248.12L353.61 248.12L353.8 248.13L354 248.13L354.19 248.14L354.39 248.14L354.58 248.14L354.77 248.13L354.97 248.13L355.39 248.12L355.81 248.1L356.23 248.07L356.65 248.04L357.07 248L357.49 247.95L357.9 247.9L358.31 247.84L358.72 247.77L359.13 247.7L359.54 247.62L359.94 247.53L360.34 247.44L360.74 247.34L361.14 247.24L361.53 247.13L361.92 247.02L362.31 246.89L362.7 246.77L363.08 246.63L363.46 246.49L363.84 246.35L364.21 246.19L364.58 246.04L364.94 245.87L365.31 245.7L365.66 245.53L366.02 245.35L366.37 245.16L366.71 244.97L367.06 244.78L367.39 244.57L367.73 244.36L368.06 244.15L368.38 243.93L368.7 243.71L369.01 243.48L369.32 243.24L369.63 243L369.93 242.76L370.27 242.46L370.61 242.15L370.94 241.84L371.25 241.52L371.55 241.19L371.85 240.86L372.13 240.53L372.4 240.19L372.66 239.85L372.91 239.5L373.15 239.14L373.38 238.78L373.59 238.42L373.8 238.06L373.99 237.69L374.18 237.31L374.35 236.94L374.51 236.56L374.65 236.17L374.79 235.79L374.92 235.4L375.03 235.01L375.13 234.61L375.22 234.22L375.3 233.82L375.36 233.42L375.42 233.02L375.46 232.62L375.49 232.22L375.5 231.81L375.51 231.41L375.5 231L375.48 230.59L375.45 230.19L375.4 229.78L375.35 229.37L375.28 228.97L375.19 228.56L375.1 228.16L374.99 227.75L374.87 227.39L374.74 227.02L374.6 226.67L374.45 226.31L374.29 225.96L374.12 225.61L373.94 225.27L373.75 224.93L373.55 224.6L373.34 224.27L373.12 223.94L372.89 223.62L372.65 223.31L372.41 223L372.15 222.7L371.89 222.4L371.62 222.1L371.34 221.81L371.05 221.53L370.76 221.25L370.45 220.98L370.14 220.72L369.82 220.46L369.49 220.21L369.16 219.96L368.82 219.72L368.47 219.49L368.11 219.26L367.75 219.04L367.38 218.83L367 218.62L366.62 218.43L366.23 218.23L365.83 218.05L365.43 217.88L365.02 217.71L364.61 217.55L364.19 217.4L363.76 217.25L363.33 217.12L363.15 217.06L362.97 217.01L362.78 216.95L362.6 216.9L362.42 216.85L362.23 216.8L362.04 216.76L361.86 216.71L361.67 216.67L361.48 216.63L361.3 216.58L361.11 216.55L360.92 216.51L360.73 216.47L360.54 216.44L360.35 216.4L360.16 216.37L359.97 216.34L359.78 216.31L359.59 216.29L359.4 216.26L359.21 216.24L359.02 216.21L358.82 216.19L358.63 216.17L358.44 216.16L358.24 216.14L358.05 216.13L357.86 216.11L357.66 216.1L357.47 216.09L357.28 216.08L357.08 216.07L356.89 216.07L356.69 216.07L356.5 216.06L356.31 216.06L356.11 216.06L355.92 216.07L355.72 216.07L355.3 216.08L354.88 216.1L354.46 216.13L354.04 216.16L353.63 216.21L353.21 216.25L352.8 216.31L352.39 216.36L351.98 216.43L351.57 216.5L351.17 216.58L350.77 216.67L350.37 216.76L349.97 216.85L349.57 216.96L349.18 217.07L348.79 217.18L348.4 217.3L348.02 217.43L347.64 217.57L347.26 217.71L346.88 217.85L346.51 218L346.14 218.16L345.78 218.32L345.42 218.49L345.06 218.66L344.71 218.84L344.36 219.03L344.01 219.22L343.67 219.42L343.34 219.62L343 219.83L342.67 220.04L342.35 220.26L342.03 220.48L341.72 220.71L341.41 220.95L341.11 221.19L340.81 221.43L340.68 221.54L340.55 221.65L340.43 221.75L340.3 221.86L340.18 221.97L340.06 222.09L339.94 222.2L339.82 222.31L339.7 222.43L339.59 222.54L339.47 222.66L339.36 222.78L339.25 222.89L339.14 223.01L339.03 223.13L338.92 223.25L338.81 223.37L338.71 223.49L338.6 223.62L338.5 223.74L338.4 223.87L338.3 223.99L338.2 224.12L338.1 224.24L338.01 224.37L337.92 224.5L337.82 224.63L337.73 224.76L337.64 224.89L337.56 225.02L337.47 225.15L337.38 225.28L337.3 225.42L337.22 225.55L337.14 225.69L337.06 225.82L336.98 225.96L336.91 226.09L336.83 226.23L336.76 226.37L336.53 226.84L336.27 227.3L336 227.75L335.71 228.19L335.41 228.62L335.08 229.04L334.75 229.45L334.39 229.85L334.02 230.23L333.64 230.61L333.24 230.97L332.83 231.32L332.4 231.65L331.96 231.98L331.51 232.29L331.05 232.59L330.57 232.87L330.09 233.14L329.59 233.4L329.08 233.64L328.57 233.87L328.04 234.09L327.51 234.29L326.96 234.47L326.41 234.64L325.86 234.8L325.29 234.94L324.72 235.06L324.14 235.17L323.56 235.26L322.97 235.34L322.38 235.4L321.78 235.44L321.18 235.46L320.58 235.47L319.97 235.46L319.37 235.44L318.76 235.39L318.14 235.33L317.53 235.25L317.16 235.18L316.79 235.11L316.42 235.03L316.05 234.95L315.69 234.85L315.33 234.75L314.98 234.65L314.63 234.54L314.28 234.42L313.93 234.3L313.59 234.17L313.26 234.04L312.92 233.89L312.59 233.75L312.27 233.59L311.95 233.44L311.63 233.27L311.32 233.1L311.01 232.93L310.71 232.75L310.41 232.56L310.12 232.37L309.83 232.17L309.55 231.97L309.28 231.77L309 231.56L308.74 231.34L308.48 231.12L308.22 230.89L307.97 230.66L307.73 230.42L307.49 230.18L307.26 229.94L307.04 229.69L306.82 229.44L306.61 229.18L306.4 228.91L306.21 228.65L306.02 228.38L305.83 228.1L305.66 227.83L305.49 227.55L305.33 227.27L305.18 226.99L305.04 226.7L304.9 226.42L304.78 226.13L304.66 225.84L304.55 225.55L304.45 225.26L304.35 224.96L304.26 224.67L304.18 224.37L304.11 224.07L304.05 223.77L303.99 223.47L303.95 223.17L303.91 222.87L303.88 222.57L303.85 222.26L303.84 221.96L303.83 221.66L303.83 221.36L303.84 221.05L303.86 220.75L303.88 220.45L303.91 220.14L303.95 219.84L304 219.54L304.06 219.24L304.12 218.94L304.2 218.64L304.28 218.34L304.37 218.04L304.46 217.75L304.57 217.45L304.68 217.16L304.81 216.87L304.93 216.58L305.07 216.29L305.27 215.89L305.47 215.5L305.68 215.1L305.89 214.71L306.11 214.32L306.33 213.94L306.56 213.55L306.79 213.17L307.02 212.78L307.26 212.4L307.5 212.03L307.75 211.65L308 211.28L308.26 210.91L308.52 210.54L308.78 210.17L309.05 209.8L309.33 209.44L309.61 209.08L309.89 208.72L310.17 208.36L310.46 208.01L310.76 207.66L311.06 207.31L311.36 206.96L311.67 206.62L311.98 206.28L312.29 205.94L312.61 205.6L312.94 205.26L313.26 204.93L313.59 204.6L313.93 204.27L314.27 203.95L314.61 203.63L314.96 203.31L315.31 202.99L315.66 202.68L316.02 202.37L316.38 202.06L317.15 201.42L317.92 200.79L318.72 200.18L319.52 199.58L320.34 199L321.17 198.43L322.01 197.87L322.86 197.33L323.73 196.81L324.6 196.29L325.49 195.8L326.39 195.31L327.3 194.85L328.22 194.39L329.15 193.95L330.09 193.53L331.04 193.12L332 192.73L332.97 192.35L333.94 191.99L334.93 191.65L335.92 191.32L336.92 191L337.93 190.7L338.94 190.42L339.96 190.16L340.99 189.91L342.03 189.67L343.07 189.46L344.11 189.26L345.17 189.07L346.22 188.9L347.29 188.75L348.35 188.62L349.43 188.5L350.5 188.41L351.58 188.32L352.66 188.26L353.75 188.21L354.84 188.18L354.97 188.18L355.09 188.18L355.22 188.18L355.34 188.18L355.47 188.18L355.6 188.17L355.72 188.17L355.85 188.17L355.97 188.17L356.1 188.17L356.23 188.17L356.35 188.17L356.48 188.17L356.6 188.17L356.73 188.17L356.85 188.18L356.98 188.18L357.11 188.18L357.23 188.18L357.36 188.18L357.48 188.18L357.61 188.19L357.74 188.19L357.86 188.19L357.99 188.2L358.11 188.2L358.24 188.2L358.37 188.21L358.49 188.21L358.62 188.21L358.74 188.22L358.87 188.22L359 188.23L359.12 188.23L359.25 188.24L359.38 188.25L359.5 188.25L359.63 188.26L359.76 188.26L359.88 188.27L360.26 188.3L360.63 188.32L361.01 188.34L361.38 188.36L361.76 188.37L362.13 188.38L362.51 188.38L362.88 188.38L363.25 188.38L363.63 188.37L364 188.36L364.38 188.35L364.75 188.33L365.12 188.31L365.49 188.28L365.86 188.25L366.24 188.22L366.61 188.19L366.98 188.15L367.35 188.1L367.72 188.05L368.08 188L368.45 187.95L368.82 187.89L369.18 187.83L369.55 187.76L369.91 187.7L370.27 187.62L370.64 187.55L371 187.47L371.36 187.38L371.72 187.3L372.07 187.21L372.43 187.11L372.79 187.01L373.14 186.91L373.49 186.81L373.84 186.7L374.19 186.59L374.54 186.47L381.39 184L381.74 183.87L382.09 183.74L382.43 183.61L382.78 183.47L383.12 183.33L383.46 183.18L383.8 183.04L384.13 182.89L384.47 182.73L384.8 182.58L385.13 182.42L385.46 182.25L385.78 182.09L386.1 181.92L386.43 181.75L386.74 181.57L387.06 181.4L387.37 181.22L387.68 181.03L387.99 180.85L388.29 180.66L388.6 180.47L388.9 180.27L389.2 180.08L389.49 179.88L389.78 179.68L390.07 179.47L390.36 179.26L390.64 179.05L390.92 178.84L391.2 178.62L391.48 178.4L391.75 178.18L392.02 177.96L392.29 177.73L392.55 177.5L392.81 177.27L393.07 177.04L393.32 176.8L393.57 176.56L420.72 150.4L421.16 149.99L421.62 149.6L422.09 149.23L422.58 148.88L423.08 148.54L423.59 148.22L424.11 147.91L424.65 147.63L425.19 147.36L425.75 147.11L426.31 146.88L426.89 146.67L427.47 146.47L428.06 146.29L428.65 146.13L429.25 145.99L429.86 145.87L430.47 145.77L431.09 145.68L431.7 145.61L432.32 145.56L432.95 145.53L433.57 145.52L434.19 145.53L434.82 145.55ZM433.21 154.83L433 154.85L432.79 154.87L432.59 154.9L432.39 154.93L432.19 154.97L431.99 155.02L431.79 155.07L431.59 155.13L431.4 155.2L431.21 155.27L431.02 155.34L430.83 155.43L430.65 155.52L430.47 155.61L430.3 155.71L430.13 155.82L429.96 155.93L429.8 156.05L429.64 156.17L429.49 156.3L429.34 156.44L402.2 182.6L401.86 182.92L401.52 183.23L401.18 183.54L400.83 183.85L400.48 184.16L400.13 184.46L399.77 184.76L399.4 185.05L399.04 185.34L398.67 185.63L398.29 185.92L397.91 186.2L397.53 186.47L397.14 186.75L396.76 187.02L396.36 187.28L395.97 187.55L395.57 187.81L395.16 188.06L394.76 188.31L394.35 188.56L393.93 188.81L393.51 189.05L393.09 189.28L392.67 189.51L392.24 189.74L391.81 189.97L391.38 190.19L390.95 190.41L390.51 190.62L390.06 190.83L389.62 191.03L389.17 191.23L388.72 191.43L388.27 191.62L387.81 191.81L387.35 192L386.89 192.18L386.42 192.35L385.96 192.53L379.11 195L378.63 195.16L378.16 195.32L377.68 195.47L377.2 195.61L376.72 195.76L376.23 195.89L375.75 196.02L375.26 196.15L374.77 196.27L374.28 196.39L373.79 196.5L373.3 196.61L372.8 196.71L372.31 196.81L371.81 196.9L371.31 196.99L370.81 197.07L370.31 197.14L369.81 197.22L369.3 197.28L368.8 197.35L368.3 197.4L367.79 197.45L367.28 197.5L366.78 197.54L366.27 197.58L365.76 197.61L365.25 197.64L364.74 197.66L364.23 197.67L363.72 197.69L363.21 197.69L362.7 197.69L362.19 197.69L361.68 197.68L361.17 197.67L360.65 197.65L360.14 197.62L359.63 197.59L359.12 197.56L359.02 197.55L358.92 197.55L358.82 197.54L358.72 197.54L358.62 197.53L358.52 197.53L358.42 197.52L358.32 197.52L358.22 197.51L358.12 197.51L358.02 197.51L357.92 197.5L357.82 197.5L357.72 197.5L357.62 197.49L357.52 197.49L357.42 197.49L357.32 197.49L357.22 197.48L357.12 197.48L357.02 197.48L356.92 197.48L356.82 197.48L356.72 197.48L356.62 197.48L356.52 197.48L356.42 197.48L356.32 197.48L356.22 197.47L356.12 197.47L356.02 197.48L355.92 197.48L355.82 197.48L355.72 197.48L355.62 197.48L355.51 197.48L355.41 197.48L355.31 197.48L355.21 197.48L355.11 197.49L354.24 197.51L353.38 197.55L352.52 197.6L351.66 197.66L350.8 197.74L349.95 197.83L349.1 197.94L348.26 198.06L347.42 198.19L346.58 198.34L345.75 198.5L344.92 198.67L344.09 198.85L343.28 199.05L342.46 199.26L341.66 199.49L340.85 199.73L340.06 199.97L339.27 200.24L338.48 200.51L337.71 200.8L336.94 201.1L336.18 201.41L335.42 201.74L334.67 202.07L333.93 202.42L333.2 202.78L332.48 203.15L331.76 203.54L331.06 203.93L330.36 204.34L329.67 204.76L328.99 205.19L328.32 205.63L327.66 206.09L327.01 206.55L326.37 207.03L325.74 207.51L325.12 208.01L324.52 208.52L324.23 208.76L323.94 209.01L323.66 209.26L323.39 209.51L323.11 209.76L322.84 210.02L322.57 210.28L322.3 210.53L322.04 210.8L321.78 211.06L321.53 211.32L321.27 211.59L321.02 211.86L320.78 212.13L320.53 212.41L320.29 212.68L320.06 212.96L319.82 213.24L319.59 213.52L319.37 213.8L319.14 214.08L318.92 214.37L318.71 214.66L318.49 214.95L318.28 215.24L318.08 215.53L317.87 215.82L317.67 216.12L317.48 216.42L317.29 216.72L317.1 217.02L316.91 217.32L316.73 217.62L316.55 217.93L316.37 218.24L316.2 218.54L316.03 218.85L315.87 219.17L315.71 219.48L315.55 219.79L315.51 219.89L315.46 219.99L315.42 220.08L315.38 220.18L315.35 220.28L315.32 220.38L315.29 220.48L315.26 220.58L315.23 220.68L315.21 220.78L315.19 220.88L315.18 220.98L315.16 221.08L315.15 221.18L315.14 221.28L315.14 221.38L315.14 221.48L315.13 221.59L315.14 221.69L315.14 221.79L315.15 221.89L315.16 221.99L315.17 222.09L315.19 222.19L315.21 222.29L315.23 222.39L315.25 222.49L315.28 222.59L315.31 222.69L315.34 222.79L315.37 222.88L315.41 222.98L315.45 223.08L315.49 223.17L315.54 223.27L315.58 223.36L315.63 223.46L315.69 223.55L315.74 223.64L315.8 223.74L315.86 223.83L315.93 223.92L316 224.01L316.07 224.1L316.14 224.19L316.22 224.28L316.3 224.36L316.38 224.45L316.46 224.53L316.54 224.61L316.63 224.69L316.72 224.77L316.81 224.84L316.9 224.92L316.99 224.99L317.09 225.06L317.18 225.13L317.28 225.19L317.39 225.26L317.49 225.32L317.59 225.38L317.7 225.44L317.81 225.5L317.91 225.55L318.03 225.61L318.14 225.66L318.25 225.71L318.37 225.76L318.48 225.8L318.6 225.85L318.72 225.89L318.84 225.93L318.96 225.96L319.08 226L319.21 226.03L319.33 226.06L319.46 226.09L319.58 226.11L319.71 226.14L319.84 226.16L320.05 226.17L320.27 226.18L320.48 226.18L320.7 226.17L320.91 226.16L321.12 226.14L321.33 226.12L321.53 226.09L321.74 226.06L321.94 226.02L322.14 225.97L322.34 225.92L322.54 225.87L322.73 225.81L322.92 225.74L323.11 225.67L323.29 225.59L323.47 225.51L323.65 225.43L323.83 225.34L324 225.25L324.16 225.15L324.33 225.04L324.48 224.94L324.64 224.82L324.79 224.71L324.94 224.59L325.08 224.46L325.21 224.33L325.35 224.2L325.47 224.07L325.59 223.93L325.71 223.78L325.82 223.64L325.92 223.48L326.02 223.33L326.12 223.17L326.2 223.01L326.28 222.85L326.36 222.68L326.47 222.46L326.59 222.25L326.71 222.04L326.83 221.82L326.96 221.61L327.08 221.4L327.21 221.19L327.34 220.98L327.48 220.77L327.61 220.57L327.75 220.36L327.89 220.16L328.04 219.95L328.18 219.75L328.33 219.55L328.48 219.35L328.63 219.15L328.79 218.95L328.94 218.76L329.1 218.56L329.26 218.37L329.43 218.18L329.59 217.98L329.76 217.79L329.93 217.61L330.1 217.42L330.28 217.23L330.46 217.05L330.63 216.86L330.81 216.68L331 216.5L331.18 216.32L331.37 216.14L331.56 215.97L331.75 215.79L331.94 215.62L332.14 215.45L332.34 215.28L332.54 215.11L332.74 214.94L333.19 214.57L333.65 214.2L334.12 213.84L334.59 213.49L335.08 213.15L335.57 212.82L336.06 212.49L336.57 212.18L337.08 211.87L337.6 211.57L338.12 211.28L338.65 210.99L339.19 210.72L339.73 210.45L340.28 210.2L340.83 209.95L341.39 209.71L341.96 209.48L342.53 209.26L343.1 209.05L343.68 208.84L344.27 208.65L344.85 208.46L345.45 208.29L346.04 208.12L346.65 207.97L347.25 207.82L347.86 207.68L348.47 207.55L349.09 207.43L349.71 207.32L350.33 207.23L350.96 207.14L351.58 207.06L352.21 206.99L352.85 206.93L353.48 206.88L354.12 206.84L354.76 206.81L355.4 206.79L356.47 206.77L357.53 206.79L358.58 206.84L359.62 206.91L360.66 207.01L361.69 207.15L362.7 207.31L363.71 207.49L364.7 207.71L365.69 207.95L366.65 208.22L367.61 208.51L368.55 208.83L369.48 209.18L370.39 209.55L371.28 209.94L372.16 210.36L373.02 210.8L373.86 211.26L374.68 211.75L375.48 212.25L376.26 212.78L377.02 213.33L377.76 213.9L378.47 214.5L379.16 215.11L379.83 215.74L380.47 216.39L381.09 217.06L381.68 217.74L382.24 218.45L382.78 219.17L383.28 219.91L383.76 220.66L384.21 221.43L384.63 222.22L385.01 223.02L385.37 223.84L385.69 224.67L385.98 225.51L386.16 226.15L386.32 226.79L386.45 227.43L386.57 228.08L386.67 228.72L386.74 229.36L386.8 230.01L386.84 230.65L386.85 231.29L386.85 231.94L386.83 232.58L386.78 233.22L386.72 233.85L386.64 234.49L386.54 235.12L386.42 235.75L386.28 236.38L386.12 237L385.95 237.62L385.75 238.24L385.54 238.85L385.3 239.45L385.05 240.06L384.78 240.65L384.49 241.25L384.18 241.83L383.86 242.41L383.52 242.98L383.16 243.55L382.78 244.11L382.38 244.66L381.97 245.21L381.54 245.75L381.09 246.28L380.62 246.8L380.14 247.31L379.64 247.81L379.12 248.31L378.58 248.79L378.03 249.27L377.58 249.64L377.12 250.01L376.65 250.37L376.17 250.72L375.69 251.06L375.2 251.39L374.7 251.72L374.2 252.04L373.68 252.35L373.17 252.65L372.64 252.94L372.11 253.22L371.57 253.5L371.03 253.76L370.48 254.02L369.92 254.27L369.36 254.51L368.8 254.74L368.23 254.96L367.65 255.18L367.07 255.38L366.48 255.57L365.89 255.76L365.3 255.93L364.7 256.1L364.1 256.26L363.49 256.41L362.88 256.54L362.27 256.67L361.65 256.79L361.03 256.9L360.41 257L359.78 257.09L359.15 257.17L358.52 257.24L357.88 257.3L357.25 257.35L356.61 257.39L355.97 257.42L355.33 257.43L355.02 257.44L354.72 257.45L354.41 257.45L354.11 257.45L353.8 257.45L353.5 257.44L353.2 257.44L352.89 257.43L352.59 257.41L352.28 257.4L351.98 257.38L351.68 257.36L351.38 257.34L351.07 257.31L350.77 257.29L350.47 257.26L350.17 257.22L349.87 257.19L349.57 257.15L349.27 257.11L348.97 257.07L348.67 257.02L348.38 256.98L348.08 256.93L347.78 256.88L347.49 256.82L347.19 256.76L346.89 256.7L346.6 256.64L346.31 256.58L346.01 256.51L345.72 256.44L345.43 256.37L345.14 256.3L344.85 256.22L344.56 256.14L344.27 256.06L343.99 255.98L343.7 255.89L343.42 255.8L343.3 255.77L343.18 255.74L343.07 255.71L342.95 255.68L342.83 255.66L342.71 255.63L342.6 255.61L342.48 255.59L342.36 255.58L342.24 255.56L342.12 255.55L342 255.54L341.88 255.53L341.76 255.52L341.64 255.52L341.52 255.52L341.4 255.52L341.28 255.52L341.16 255.53L341.04 255.53L340.92 255.54L340.8 255.55L340.68 255.56L340.56 255.58L340.44 255.6L340.32 255.62L340.21 255.64L340.09 255.66L339.97 255.68L339.86 255.71L339.74 255.74L339.63 255.77L339.51 255.81L339.4 255.84L339.29 255.88L339.17 255.92L339.06 255.96L338.95 256L338.84 256.05L338.74 256.1L338.63 256.15L338.52 256.2L338.42 256.25L338.32 256.31L338.22 256.36L338.12 256.42L338.02 256.48L337.93 256.54L337.83 256.61L337.74 256.67L337.65 256.74L337.56 256.81L337.48 256.87L337.39 256.95L337.31 257.02L337.23 257.09L337.15 257.17L337.08 257.24L337 257.32L336.93 257.4L336.86 257.48L336.79 257.56L336.72 257.64L336.66 257.72L336.6 257.81L336.54 257.89L336.48 257.98L336.42 258.07L336.37 258.16L336.32 258.25L336.27 258.34L336.22 258.43L336.18 258.52L336.14 258.62L336.1 258.71L336.06 258.81L336.03 258.9L336 259L335.97 259.1L335.94 259.2L335.91 259.38L335.89 259.56L335.88 259.73L335.87 259.91L335.87 260.09L335.88 260.27L335.9 260.44L335.92 260.61L335.95 260.79L335.99 260.96L336.04 261.13L336.09 261.29L336.15 261.46L336.22 261.62L336.29 261.78L336.37 261.94L336.46 262.1L336.55 262.25L336.65 262.4L336.76 262.55L336.87 262.7L336.99 262.84L337.11 262.98L337.24 263.11L337.37 263.24L337.51 263.37L337.66 263.49L337.81 263.61L337.97 263.73L338.13 263.84L338.29 263.95L338.47 264.05L338.64 264.15L338.82 264.24L339.01 264.33L339.2 264.41L339.4 264.49L339.59 264.56L339.8 264.63L340.01 264.69L340.38 264.8L340.76 264.9L341.13 265L341.51 265.1L341.89 265.2L342.27 265.3L342.65 265.39L343.04 265.48L343.42 265.56L343.8 265.64L344.19 265.72L344.57 265.8L344.96 265.87L345.35 265.94L345.73 266.01L346.12 266.08L346.51 266.14L346.9 266.2L347.29 266.25L347.68 266.3L348.08 266.35L348.47 266.4L348.86 266.45L349.25 266.49L349.65 266.52L350.04 266.56L350.44 266.59L350.83 266.62L351.23 266.65L351.62 266.67L352.02 266.69L352.41 266.71L352.81 266.72L353.21 266.73L353.6 266.74L354 266.74L354.4 266.75L354.8 266.74L355.19 266.74L355.59 266.73L356.46 266.71L357.33 266.67L358.19 266.61L359.05 266.54L359.91 266.46L360.77 266.37L361.62 266.26L362.47 266.13L363.31 266L364.15 265.85L364.99 265.69L365.82 265.51L366.64 265.32L367.46 265.12L368.28 264.91L369.09 264.68L369.89 264.44L370.69 264.19L371.48 263.92L372.27 263.65L373.05 263.36L373.82 263.06L374.58 262.74L375.34 262.42L376.09 262.08L376.83 261.73L377.57 261.37L378.29 260.99L379.01 260.61L379.72 260.21L380.42 259.8L381.11 259.38L381.79 258.95L382.47 258.5L383.13 258.05L383.78 257.58L384.42 257.11L385.06 256.62L385.68 256.12L386.29 255.61L386.42 255.5L386.55 255.4L386.69 255.3L386.83 255.21L386.97 255.12L387.12 255.03L387.27 254.95L387.42 254.87L387.57 254.79L387.73 254.72L387.88 254.66L388.05 254.6L388.21 254.54L388.37 254.49L388.54 254.44L388.71 254.39L388.87 254.35L389.04 254.32L389.22 254.28L389.39 254.26L389.56 254.23L389.74 254.22L389.91 254.2L390.09 254.19L390.26 254.19L390.44 254.19L390.62 254.19L390.79 254.2L390.97 254.21L391.15 254.23L391.32 254.25L391.5 254.28L391.67 254.31L391.84 254.35L392.02 254.39L392.19 254.44L392.36 254.49L392.53 254.54L392.7 254.6L392.86 254.67L393.03 254.74L393.19 254.81L393.34 254.89L393.5 254.97L393.65 255.05L393.79 255.14L393.93 255.23L394.07 255.33L394.2 255.42L394.33 255.52L394.45 255.63L394.57 255.73L394.69 255.84L394.8 255.96L394.91 256.07L395.01 256.19L395.11 256.31L395.2 256.43L395.29 256.56L395.37 256.68L395.45 256.81L395.53 256.94L395.6 257.08L395.66 257.21L395.72 257.35L395.77 257.49L395.82 257.63L395.87 257.77L395.9 257.91L395.94 258.05L395.96 258.2L395.99 258.34L396 258.49L396.01 258.64L396.02 258.78L396.02 258.93L396.01 259.08L396 259.23L395.98 259.38L395.95 259.53L395.93 259.68L395.9 259.83L395.87 259.98L395.84 260.13L395.81 260.27L395.77 260.42L395.74 260.57L395.71 260.72L395.67 260.87L395.64 261.01L395.6 261.16L395.56 261.31L395.52 261.46L395.49 261.6L395.45 261.75L395.4 261.9L395.36 262.04L395.32 262.19L395.28 262.33L395.23 262.48L395.19 262.63L395.14 262.77L395.09 262.92L395.04 263.06L395 263.21L394.95 263.35L394.89 263.5L394.84 263.64L394.79 263.79L394.74 263.93L394.68 264.07L394.63 264.22L394.57 264.36L394.51 264.5L394.46 264.65L394.4 264.79L394.34 264.93L394.28 265.07L394.22 265.21L394.16 265.36L393.7 266.3L393.21 267.24L392.67 268.16L392.1 269.07L391.49 269.96L390.83 270.85L390.14 271.72L389.4 272.58L388.63 273.43L387.81 274.26L386.96 275.09L386.06 275.9L385.13 276.69L384.15 277.48L383.14 278.25L382.09 279.01L380.99 279.76L379.86 280.5L378.69 281.22L377.48 281.93L376.23 282.63L374.94 283.32L373.61 283.99L372.24 284.65L370.83 285.3L369.38 285.93L367.89 286.56L366.37 287.16L364.8 287.76L363.2 288.35L361.55 288.92L359.87 289.48L358.15 290.02L356.39 290.55L354.59 291.07L352.75 291.58L350.87 292.08L348.95 292.56L347 293.02L345.01 293.48L344.78 293.54L344.56 293.6L344.35 293.67L344.14 293.75L343.94 293.83L343.74 293.92L343.55 294.01L343.37 294.12L343.18 294.22L343.01 294.33L342.84 294.45L342.68 294.57L342.52 294.7L342.37 294.83L342.23 294.96L342.09 295.1L341.96 295.24L341.83 295.39L341.72 295.54L341.61 295.7L341.5 295.85L341.41 296.02L341.32 296.18L341.24 296.35L341.17 296.51L341.1 296.69L341.05 296.86L341 297.04L340.96 297.21L340.92 297.39L340.9 297.57L340.88 297.75L340.88 297.94L340.88 298.12L340.89 298.31L340.91 298.49L340.94 298.68L340.98 298.86L341.02 299.05L341.08 299.24L341.15 299.42L341.22 299.6L341.31 299.77L341.4 299.94L341.5 300.11L341.61 300.27L341.72 300.43L341.84 300.58L341.97 300.73L342.1 300.87L342.24 301.01L342.39 301.14L342.54 301.27L342.7 301.39L342.86 301.51L343.03 301.62L343.2 301.73L343.38 301.83L343.56 301.93L343.75 302.02L343.94 302.1L344.13 302.18L344.33 302.25L344.53 302.32L344.73 302.38L344.94 302.43L345.15 302.48L345.36 302.52L345.58 302.55L345.79 302.58L346.01 302.6L346.23 302.61L346.45 302.62L346.67 302.61L346.9 302.61L347.12 302.59L347.35 302.57L347.57 302.53L347.79 302.5L348.02 302.45L350.28 301.93L352.5 301.39L354.67 300.84L356.8 300.27L358.89 299.68L360.94 299.08L362.94 298.46L364.9 297.82L366.82 297.17L368.69 296.5L370.52 295.81L372.31 295.1L374.05 294.38L375.75 293.64L377.41 292.89L379.02 292.12L380.6 291.33L382.12 290.53L383.61 289.71L385.05 288.87L386.44 288.02L387.8 287.15L389.1 286.26L390.37 285.36L391.59 284.44L392.77 283.51L393.9 282.55L394.99 281.59L396.04 280.6L397.04 279.6L398 278.59L398.91 277.56L399.78 276.51L400.61 275.44L401.39 274.36L402.12 273.27L402.81 272.15L403.46 271.03L404.07 269.88L404.62 268.72L404.7 268.56L404.79 268.4L404.88 268.24L404.98 268.08L405.09 267.93L405.2 267.79L405.32 267.65L405.45 267.51L405.58 267.37L405.71 267.25L405.85 267.12L406 267L406.15 266.89L406.3 266.78L406.46 266.67L406.63 266.57L406.8 266.48L406.97 266.39L407.14 266.3L407.32 266.22L407.51 266.15L407.69 266.08L407.88 266.02L408.07 265.96L408.27 265.91L408.46 265.86L408.66 265.82L408.86 265.79L409.06 265.76L409.27 265.73L409.47 265.72L409.68 265.71L409.89 265.7L410.1 265.71L410.31 265.72L410.52 265.73L410.73 265.75L410.94 265.78L411.15 265.82L411.36 265.86L411.57 265.91L411.78 265.96L411.98 266.02L412.17 266.09L412.37 266.16L412.55 266.24L412.74 266.32L412.92 266.41L413.09 266.5L413.26 266.6L413.42 266.7L413.58 266.81L413.74 266.92L413.88 267.04L414.03 267.16L414.17 267.28L414.3 267.41L414.42 267.54L414.54 267.68L414.66 267.82L414.77 267.96L414.87 268.1L414.96 268.25L415.05 268.4L415.14 268.56L415.21 268.71L415.28 268.87L415.34 269.03L415.4 269.19L415.44 269.36L415.49 269.53L415.52 269.69L415.54 269.86L415.56 270.04L415.57 270.21L415.58 270.38L415.57 270.56L415.56 270.73L415.53 270.91L415.5 271.08L415.23 272.42L414.92 273.76L414.56 275.1L414.17 276.44L413.74 277.78L413.27 279.13L412.76 280.47L412.21 281.82L411.62 283.17L410.99 284.52L410.33 285.87L409.62 287.22L408.88 288.57L408.1 289.92L407.27 291.28L406.41 292.63L405.51 293.99L404.57 295.35L403.6 296.71L402.58 298.06L401.53 299.42L400.44 300.78L399.3 302.14L398.13 303.5L396.93 304.86L395.68 306.23L394.39 307.59L393.07 308.95L391.71 310.31L390.31 311.68L388.87 313.04L387.4 314.4L385.88 315.77L384.33 317.13L382.74 318.49L381.11 319.85L379.45 321.22L377.74 322.58L376 323.94L374.22 325.3L374.14 325.37L374.06 325.43L373.98 325.5L373.9 325.56L373.82 325.63L373.75 325.7L373.67 325.77L373.6 325.84L373.53 325.91L373.46 325.98L373.4 326.05L373.33 326.13L373.27 326.2L373.21 326.28L373.15 326.36L373.1 326.44L373.04 326.52L372.99 326.6L372.94 326.68L372.89 326.76L372.84 326.84L372.8 326.92L372.76 327.01L372.72 327.09L372.68 327.18L372.64 327.26L372.61 327.35L372.58 327.44L372.54 327.53L372.52 327.61L372.49 327.7L372.47 327.79L372.45 327.88L372.43 327.97L372.41 328.06L372.39 328.15L372.38 328.25L372.37 328.34L372.36 328.43L372.35 328.52L372.35 328.66L372.35 328.8L372.36 328.94L372.37 329.08L372.38 329.22L372.4 329.36L372.43 329.49L372.46 329.63L372.49 329.76L372.53 329.89L372.58 330.02L372.62 330.15L372.68 330.28L372.73 330.41L372.8 330.54L372.86 330.66L372.93 330.78L373.01 330.9L373.09 331.02L373.17 331.14L373.26 331.25L373.35 331.36L373.45 331.47L373.54 331.58L373.65 331.69L373.75 331.79L373.87 331.89L373.98 331.99L374.1 332.08L374.22 332.18L374.34 332.27L374.47 332.35L374.6 332.44L374.74 332.52L374.88 332.6L375.02 332.67L375.16 332.74L375.31 332.81L375.46 332.88L375.62 332.94L375.77 332.99L375.93 333.05L376.09 333.1L376.25 333.14L376.41 333.18L376.57 333.22L376.73 333.25L376.9 333.28L377.06 333.31L377.23 333.33L377.39 333.34L377.55 333.36L377.72 333.37L377.88 333.37L378.05 333.37L378.21 333.37L378.38 333.36L378.54 333.35L378.7 333.34L378.87 333.32L379.03 333.29L379.19 333.27L379.35 333.24L379.51 333.2L379.67 333.17L379.82 333.12L379.98 333.08L380.13 333.03L380.29 332.98L380.44 332.92L380.59 332.86L380.73 332.79L380.88 332.73L381.02 332.66L381.16 332.58L381.3 332.5L381.44 332.42L381.57 332.33L381.7 332.24L381.83 332.15L383.6 330.8L385.33 329.45L387.04 328.1L388.7 326.74L390.34 325.39L391.93 324.03L393.5 322.68L395.03 321.32L396.52 319.96L397.99 318.6L399.41 317.23L400.8 315.87L402.16 314.5L403.48 313.14L404.77 311.77L406.02 310.4L407.24 309.03L408.42 307.66L409.57 306.29L410.69 304.92L411.76 303.55L412.81 302.18L413.82 300.8L414.79 299.43L415.73 298.06L416.63 296.68L417.5 295.31L418.33 293.93L419.13 292.55L419.89 291.18L420.62 289.8L421.31 288.42L421.97 287.05L422.59 285.67L423.17 284.29L423.72 282.92L424.24 281.54L424.72 280.16L425.16 278.78L425.57 277.41L425.61 277.25L425.67 277.1L425.73 276.95L425.79 276.8L425.86 276.65L425.94 276.51L426.02 276.37L426.11 276.23L426.2 276.1L426.3 275.97L426.4 275.84L426.51 275.71L426.62 275.59L426.74 275.47L426.86 275.36L426.99 275.24L427.12 275.13L427.25 275.03L427.39 274.93L427.54 274.83L427.68 274.74L427.83 274.65L427.99 274.56L428.14 274.48L428.3 274.4L428.47 274.33L428.63 274.26L428.8 274.2L428.98 274.14L429.15 274.09L429.33 274.04L429.51 273.99L429.69 273.95L429.88 273.91L430.06 273.88L430.25 273.86L430.44 273.84L430.63 273.82L430.83 273.81L431.02 273.81L431.07 273.81L431.27 273.81L431.46 273.82L431.65 273.83L431.84 273.85L432.03 273.88L432.21 273.9L432.4 273.94L432.58 273.98L432.76 274.02L432.94 274.07L433.11 274.12L433.28 274.18L433.45 274.24L433.62 274.31L433.78 274.38L433.95 274.45L434.1 274.53L434.26 274.62L434.41 274.7L434.55 274.79L434.7 274.89L434.84 274.99L434.97 275.09L435.1 275.2L435.23 275.31L435.36 275.42L435.47 275.54L435.59 275.66L435.7 275.78L435.8 275.91L435.9 276.04L436 276.17L436.09 276.31L436.17 276.45L436.25 276.59L436.32 276.73L436.39 276.88L436.45 277.03L436.51 277.18L436.56 277.33L436.97 278.77L437.34 280.21L437.67 281.65L437.96 283.09L438.21 284.54L438.41 285.98L438.58 287.43L438.71 288.88L438.8 290.33L438.84 291.78L438.85 293.23L438.82 294.67L438.75 296.11L438.64 297.55L438.49 298.99L438.3 300.42L438.07 301.85L437.8 303.27L437.5 304.69L437.16 306.1L436.77 307.5L436.35 308.9L435.9 310.29L435.4 311.67L434.87 313.04L434.29 314.41L433.69 315.76L433.04 317.1L432.36 318.43L431.63 319.75L430.88 321.06L430.08 322.35L429.25 323.64L428.38 324.9L427.48 326.16L426.54 327.4L425.56 328.62L424.55 329.83L423.5 331.02L422.42 332.19L422.28 332.34L422.14 332.5L422.01 332.65L421.9 332.81L421.79 332.97L421.68 333.14L421.59 333.3L421.51 333.47L421.43 333.64L421.36 333.81L421.3 333.98L421.25 334.16L421.21 334.33L421.17 334.51L421.15 334.69L421.13 334.86L421.12 335.04L421.11 335.22L421.12 335.4L421.13 335.57L421.16 335.75L421.19 335.93L421.23 336.1L421.27 336.28L421.33 336.45L421.39 336.62L421.46 336.79L421.54 336.95L421.63 337.12L421.72 337.28L421.82 337.44L421.93 337.6L422.05 337.75L422.18 337.9L422.31 338.05L422.45 338.19L422.6 338.33L422.76 338.47L422.92 338.6L423.09 338.73L423.18 338.79L423.27 338.85L423.36 338.9L423.44 338.96L423.54 339.01L423.63 339.07L423.72 339.12L423.81 339.17L423.91 339.21L424.01 339.26L424.1 339.3L424.2 339.35L424.3 339.39L424.4 339.43L424.5 339.46L424.6 339.5L424.71 339.54L424.81 339.57L424.91 339.6L425.02 339.63L425.12 339.66L425.23 339.68L425.34 339.71L425.44 339.73L425.55 339.75L425.66 339.77L425.77 339.79L425.88 339.8L425.99 339.82L426.1 339.83L426.21 339.84L426.32 339.85L426.43 339.85L426.54 339.86L426.66 339.86L426.77 339.86L426.88 339.86L426.99 339.86L427.1 339.85L427.22 339.85L427.33 339.84L427.44 339.83L427.55 339.82L427.66 339.8L427.77 339.79L427.88 339.77L427.99 339.75L428.1 339.73L428.21 339.71L428.32 339.68L428.42 339.66L428.53 339.63L428.64 339.6L428.74 339.57L428.84 339.54L428.95 339.5L429.05 339.46L429.15 339.43L429.25 339.39L429.35 339.35L429.44 339.3L429.54 339.26L429.64 339.21L429.73 339.17L429.83 339.12L429.92 339.07L430.01 339.02L430.1 338.96L430.19 338.91L430.28 338.85L430.36 338.79L430.45 338.73L430.53 338.67L430.61 338.61L430.69 338.55L430.77 338.48L430.85 338.41L430.93 338.35L431 338.28L431.07 338.21L432.36 336.78L433.61 335.33L434.81 333.87L435.96 332.38L437.07 330.88L438.14 329.36L439.16 327.82L440.14 326.27L441.07 324.7L441.96 323.11L442.8 321.51L443.59 319.9L444.34 318.28L445.04 316.64L445.7 314.99L446.31 313.33L446.87 311.66L447.39 309.98L447.86 308.29L448.28 306.59L448.65 304.89L448.98 303.17L449.26 301.46L449.49 299.73L449.68 298.01L449.82 296.27L449.9 294.54L449.94 292.8L449.94 291.06L449.88 289.32L449.77 287.58L449.62 285.84L449.42 284.09L449.16 282.35L448.86 280.62L448.51 278.88L448.11 277.15L447.66 275.42L447.16 273.7L446.6 271.98L446.43 271.5L446.27 271.02L446.12 270.53L445.97 270.05L445.83 269.56L445.7 269.07L445.58 268.58L445.46 268.09L445.36 267.6L445.26 267.11L445.17 266.61L445.09 266.12L445.01 265.63L444.95 265.13L444.89 264.63L444.84 264.14L444.79 263.64L444.76 263.14L444.73 262.65L444.72 262.15L444.71 261.65L444.7 261.15L444.71 260.66L444.72 260.16L444.74 259.66L444.77 259.16L444.81 258.67L444.86 258.17L444.91 257.67L444.97 257.18L445.04 256.68L445.12 256.19L445.21 255.69L445.3 255.2L445.41 254.71L445.52 254.21L445.63 253.72L445.76 253.23L445.9 252.74L446.04 252.25L446.2 251.71L446.35 251.16L446.51 250.61L446.66 250.06L446.8 249.52L446.95 248.97L447.09 248.42L447.24 247.87L447.37 247.32L447.51 246.77L447.64 246.22L447.77 245.66L447.9 245.11L448.03 244.56L448.15 244.01L448.27 243.46L448.39 242.9L448.51 242.35L448.62 241.79L448.73 241.24L448.84 240.69L448.95 240.13L449.05 239.58L449.15 239.02L449.25 238.46L449.35 237.91L449.44 237.35L449.54 236.79L449.62 236.24L449.71 235.68L449.79 235.12L449.88 234.56L449.96 234.01L450.03 233.45L450.11 232.89L450.18 232.33L450.25 231.77L450.31 231.21L450.38 230.65L450.44 230.09L450.5 229.61L450.56 229.13L450.63 228.66L450.71 228.18L450.8 227.7L450.89 227.23L450.99 226.76L451.09 226.28L451.21 225.81L451.32 225.34L451.45 224.87L451.58 224.41L451.72 223.94L451.86 223.47L452.01 223.01L452.16 222.55L452.33 222.09L452.49 221.63L452.67 221.17L452.85 220.72L453.04 220.26L453.23 219.81L453.43 219.36L453.64 218.91L453.85 218.47L454.07 218.02L454.29 217.58L454.52 217.14L454.76 216.7L455 216.27L455.25 215.83L455.51 215.4L455.77 214.97L456.03 214.54L456.31 214.12L456.59 213.7L456.87 213.28L457.16 212.86L457.46 212.44L457.76 212.03L477.53 185.65L477.64 185.5L477.74 185.34L477.84 185.18L477.92 185.02L478 184.86L478.08 184.69L478.14 184.53L478.19 184.36L478.24 184.19L478.28 184.02L478.31 183.86L478.34 183.69L478.36 183.52L478.37 183.35L478.37 183.18L478.36 183.01L478.35 182.84L478.33 182.67L478.3 182.5L478.27 182.34L478.22 182.17L478.17 182.01L478.12 181.84L478.05 181.68L477.98 181.52L477.9 181.37L477.82 181.21L477.72 181.06L477.62 180.91L477.52 180.76L477.4 180.62L477.28 180.48L477.16 180.34L477.02 180.2L476.88 180.07L476.73 179.95L476.58 179.82L476.42 179.7L476.25 179.59L476.08 179.48L437 155.73L436.81 155.63L436.63 155.53L436.44 155.43L436.25 155.35L436.06 155.27L435.87 155.2L435.67 155.13L435.47 155.07L435.27 155.02L435.07 154.97L434.86 154.93L434.66 154.9L434.45 154.87L434.24 154.85L434.04 154.83L433.83 154.82L433.62 154.82L433.41 154.82L433.21 154.83Z" id="asMbz1sGM"></path><mask id="maska6jptOZKEA" x="140.3" y="135.52" width="359.4" height="298.92" maskUnits="userSpaceOnUse"><rect x="140.3" y="135.52" width="359.4" height="298.92" fill="white"></rect><use xlink:href="#asMbz1sGM" opacity="1" fill="black"></use></mask><path d="M611.24 173.03C611.24 206.58 611.24 474.97 611.24 508.52C611.24 518.21 603.31 526.1 593.57 526.1C539.61 526.1 107.97 526.1 54.02 526.1C44.27 526.1 36.34 518.21 36.34 508.52C36.34 496.64 36.34 401.56 36.34 389.67C36.34 384.69 32.27 380.64 27.26 380.64C22.25 380.64 18.18 384.69 18.18 389.67C18.18 401.56 18.18 496.64 18.18 508.52C18.18 528.17 34.26 544.15 54.02 544.15C107.97 544.15 539.61 544.15 593.57 544.15C613.32 544.15 629.39 528.17 629.39 508.52C629.39 474.97 629.39 206.58 629.39 173.03C629.39 168.04 625.33 164 620.32 164C615.3 164 611.24 168.04 611.24 173.03Z" id="biPJXCzQj"></path><mask id="maska2gHs6TOJ3" x="8.18" y="154" width="631.21" height="400.15" maskUnits="userSpaceOnUse"><rect x="8.18" y="154" width="631.21" height="400.15" fill="white"></rect><use xlink:href="#biPJXCzQj" opacity="1" fill="black"></use></mask><path d="M18.18 173.03C18.18 191.68 18.18 340.92 18.18 359.58C18.18 364.56 22.25 368.61 27.26 368.61C32.27 368.61 36.34 364.56 36.34 359.58C36.34 340.92 36.34 191.68 36.34 173.03C36.34 168.04 32.27 164 27.26 164C22.25 164 18.18 168.04 18.18 173.03Z" id="c1kkAqqH5I"></path><mask id="maskf34U05uue3" x="8.18" y="154" width="38.15" height="224.61" maskUnits="userSpaceOnUse"><rect x="8.18" y="154" width="38.15" height="224.61" fill="white"></rect><use xlink:href="#c1kkAqqH5I" opacity="1" fill="black"></use></mask></defs><g><g><g><use xlink:href="#jvAhdZYeC" opacity="1" fill="#ffffff" fill-opacity="1"></use><g mask="url(#maskb9h3FLt2t)"><use xlink:href="#jvAhdZYeC" opacity="1" fill-opacity="0" stroke="#000000" stroke-width="10" stroke-opacity="1"></use></g></g><g><use xlink:href="#asMbz1sGM" opacity="1" fill="#fefefe" fill-opacity="1"></use><g mask="url(#maska6jptOZKEA)"><use xlink:href="#asMbz1sGM" opacity="1" fill-opacity="0" stroke="#000000" stroke-width="10" stroke-opacity="1"></use></g></g><g><use xlink:href="#biPJXCzQj" opacity="1" fill="#ffffff" fill-opacity="1"></use><g mask="url(#maska2gHs6TOJ3)"><use xlink:href="#biPJXCzQj" opacity="1" fill-opacity="0" stroke="#000000" stroke-width="10" stroke-opacity="1"></use></g></g><g><use xlink:href="#c1kkAqqH5I" opacity="1" fill="#ffffff" fill-opacity="1"></use><g mask="url(#maskf34U05uue3)"><use xlink:href="#c1kkAqqH5I" opacity="1" fill-opacity="0" stroke="#000000" stroke-width="10" stroke-opacity="1"></use></g></g></g></g></svg>