<?xml version="1.0" encoding="UTF-8" standalone="no"?>
<!DOCTYPE svg PUBLIC "-//W3C//DTD SVG 1.1//EN" "http://www.w3.org/Graphics/SVG/1.1/DTD/svg11.dtd">
<svg version="1.1" xmlns="http://www.w3.org/2000/svg" xmlns:xlink="http://www.w3.org/1999/xlink" preserveAspectRatio="xMidYMid meet" viewBox="0 0 640 640" width="640" height="640"><defs><path d="M640 324.78C640 498.76 496.61 640 320 640C143.39 640 0 498.76 0 324.78C0 150.81 143.39 9.56 320 9.56C496.61 9.56 640 150.81 640 324.78Z" id="a3ZFuE4noW"></path><path d="M493.7 156.17C465.45 133.71 432.2 122.51 398.95 122.51C371.66 122.51 344.53 130.48 320 145.61C295.47 130.48 268.34 122.51 241.05 122.51C207.8 122.51 174.55 133.71 146.3 156.17C146.3 156.24 146.3 156.86 146.3 156.94C111.42 156.94 83.14 187.77 83.14 225.8C83.14 246.46 83.14 411.72 83.14 432.38C83.14 470.41 111.42 501.24 146.3 501.24C159.23 501.24 262.62 501.24 275.54 501.24C282.08 521.25 299.44 535.67 320 535.67C340.56 535.67 357.92 521.25 364.46 501.24C377.38 501.24 480.77 501.24 493.7 501.24C528.58 501.24 556.86 470.41 556.86 432.38C556.86 411.72 556.86 246.46 556.86 225.8C556.86 187.77 528.58 156.94 493.7 156.94C493.7 156.79 493.7 156.24 493.7 156.17ZM398.95 157.04C421.31 157.04 442.87 163.19 462.12 174.99C462.12 198.51 462.12 386.67 462.12 410.19C441.99 402.52 420.73 398.62 398.95 398.62C377.18 398.62 355.92 402.52 335.79 410.19C335.79 394.51 335.79 316.11 335.79 174.99C362.99 163.02 384.05 157.04 398.95 157.04ZM241.05 157.04C263.41 157.04 284.96 163.19 304.21 174.99C304.21 198.51 304.21 386.67 304.21 410.19C284.08 402.52 262.82 398.62 241.05 398.62C219.27 398.62 198.01 402.52 177.88 410.19C177.88 394.51 177.88 316.11 177.88 174.99C205.09 163.02 226.14 157.04 241.05 157.04ZM493.7 466.81C483.17 466.81 430.53 466.81 335.79 466.81C335.79 477.14 335.79 482.88 335.79 484.03C335.79 493.54 328.73 501.24 320 501.24C311.27 501.24 304.21 493.54 304.21 484.03C304.21 482.88 304.21 477.14 304.21 466.81C209.47 466.81 156.83 466.81 146.3 466.81C128.89 466.81 114.72 451.38 114.72 432.38C114.72 411.72 114.72 246.46 114.72 225.8C114.72 206.8 128.89 191.37 146.3 191.37C146.3 215.9 146.3 412.15 146.3 436.69C146.3 446.2 153.37 453.9 162.09 453.9C163.65 453.9 216.7 433.16 241.05 433.16C266.13 433.16 291.01 440.15 313.92 452.99C313.94 452.98 314.03 452.93 314.19 452.82C314.19 452.8 314.2 452.79 314.2 452.79C316 453.56 317.93 454.07 320 454.07C322.07 454.07 324 453.56 325.8 452.79C325.8 452.79 325.81 452.8 325.81 452.82C325.97 452.93 326.06 452.98 326.08 452.99C348.99 440.15 373.87 433.16 398.95 433.16C423.3 433.16 476.35 453.9 477.91 453.9C486.63 453.9 493.7 446.2 493.7 436.69C493.7 412.15 493.7 215.9 493.7 191.37C511.11 191.37 525.28 206.8 525.28 225.8C525.28 239.57 525.28 308.43 525.28 432.38C515.83 455.33 505.3 466.81 493.7 466.81ZM209.47 191.37L209.47 225.8L272.63 225.8L272.63 191.37L209.47 191.37ZM209.47 260.23L209.47 294.66L272.63 294.66L272.63 260.23L209.47 260.23ZM209.47 329.09L209.47 363.52L272.63 363.52L272.63 329.09L209.47 329.09ZM367.37 191.37L367.37 225.8L430.53 225.8L430.53 191.37L367.37 191.37ZM367.37 260.23L367.37 294.66L430.53 294.66L430.53 260.23L367.37 260.23ZM367.37 329.09L367.37 363.52L430.53 363.52L430.53 329.09L367.37 329.09Z" id="a3yYlPCXO0"></path></defs><g><g><g><use xlink:href="#a3ZFuE4noW" opacity="1" fill="#ffffff" fill-opacity="1"></use></g><g><use xlink:href="#a3yYlPCXO0" opacity="1" fill="#000000" fill-opacity="1"></use><g><use xlink:href="#a3yYlPCXO0" opacity="1" fill-opacity="0" stroke="#000000" stroke-width="1" stroke-opacity="0"></use></g></g></g></g></svg>